<?xml version="1.0" encoding="utf-8"?>
<!-- Generator: Adobe Illustrator 16.0.0, SVG Export Plug-In . SVG Version: 6.00 Build 0)  -->
<!DOCTYPE svg PUBLIC "-//W3C//DTD SVG 1.1//EN" "http://www.w3.org/Graphics/SVG/1.1/DTD/svg11.dtd">
<svg version="1.1" id="Layer_1" xmlns="http://www.w3.org/2000/svg" xmlns:xlink="http://www.w3.org/1999/xlink" x="0px" y="0px"
	 width="530.052px" height="360px" viewBox="0 0 530.052 360" enable-background="new 0 0 530.052 360" xml:space="preserve">
<g>
	<path fill="#FFFFFF" stroke="#FFFFFF" stroke-width="3" stroke-miterlimit="10" d="M0,354.483"/>
	<g>
		<path fill="#FFFFFF" d="M9.288,352.059c3.774-38.157,6.442-77.197,14.856-114.365c4.125-17.066,7.034-36.008,13.755-52.357"/>
		<g>
			<path fill="#FFFFFF" d="M14.288,352.059c2.85-28.954,5.061-57.998,9.64-86.748c2.133-13.394,5.21-26.552,8.075-39.798
				c2.844-13.147,5.689-26.328,10.718-38.847c2.405-5.988-7.271-8.564-9.643-2.658c-5.028,12.519-7.877,25.7-10.718,38.847
				c-2.999,13.879-6.143,27.662-8.377,41.694c-4.618,28.996-6.821,58.31-9.695,87.511C3.657,358.476,13.663,358.416,14.288,352.059
				L14.288,352.059z"/>
		</g>
	</g>
	<g>
		<path fill="#FFFFFF" d="M37.124,182.908c17.703,36.757,36.842,72.851,56.422,108.392c8.13,14.182,10.078,31.573,18.152,45.259"/>
		<g>
			<path fill="#FFFFFF" d="M32.807,185.431c12.936,26.816,26.601,53.27,40.688,79.498c6.779,12.621,14.982,25.078,20.21,38.433
				c4.663,11.912,7.291,24.511,13.677,35.72c3.191,5.602,11.832,0.564,8.635-5.047c-6.487-11.387-8.979-24.435-13.932-36.479
				c-5.361-13.039-13.28-25.267-19.955-37.675c-14.105-26.217-27.752-52.682-40.688-79.497
				C38.64,174.577,30.019,179.651,32.807,185.431L32.807,185.431z"/>
		</g>
	</g>
	<g>
		<path fill="#FFFFFF" d="M29.053,290.475c18.273-3.054,35.716-9.033,54.101-11.094"/>
		<g>
			<path fill="#FFFFFF" d="M30.382,295.296c17.706-3.059,34.902-8.78,52.771-10.915c6.321-0.755,6.395-10.764,0-10
				c-18.79,2.245-36.822,8.058-55.43,11.272C21.378,286.75,24.077,296.386,30.382,295.296L30.382,295.296z"/>
		</g>
	</g>
</g>
<g>
	<g>
		<path fill="#FFFFFF" d="M98.716,157.834c9.057,46.119,25.081,91.379,36.1,137.112c3.872,14.526,6.177,28.851,9.067,43.569"/>
		<g>
			<path fill="#FFFFFF" d="M93.895,159.164c5.975,30.107,14.696,59.546,23.151,89.024c4.226,14.736,8.352,29.501,12.045,44.381
				c3.889,15.667,6.883,31.438,9.972,47.276c1.233,6.326,10.871,3.641,9.643-2.658c-2.966-15.213-5.864-30.357-9.517-45.423
				c-3.611-14.895-7.761-29.653-11.971-44.387c-8.603-30.103-17.58-60.133-23.68-90.872
				C102.283,150.183,92.645,152.866,93.895,159.164L93.895,159.164z"/>
		</g>
	</g>
	<g>
		<path fill="#FFFFFF" d="M124.489,247.549c12.668-5.546,28.754-6.667,42.49-9.364c6.871-1.349,14.133-3.286,21.194-3.653"/>
		<g>
			<path fill="#FFFFFF" d="M125.818,252.371c9.35-3.93,19.35-5.578,29.312-7.147c10.973-1.729,21.97-4.92,33.044-5.691
				c6.396-0.446,6.439-10.449,0-10c-10.911,0.76-21.554,3.808-32.338,5.521c-11.071,1.759-22.269,3.301-32.676,7.675
				C117.309,245.188,119.876,254.869,125.818,252.371L125.818,252.371z"/>
		</g>
	</g>
	<g>
		<path fill="#FFFFFF" d="M169.278,140.918c6.833,37.384,21.611,73.717,29.427,110.908c2.409,12.266,4.817,24.531,7.322,37.288
			c2.506,12.755,4.617,26.099,8.104,38.662"/>
		<g>
			<path fill="#FFFFFF" d="M164.457,142.248c5.874,31.531,16.905,61.733,25.087,92.678c8.204,31.027,11.358,63.226,19.766,94.18
				c1.688,6.217,11.336,3.574,9.643-2.658c-8.406-30.95-11.683-63.127-19.765-94.18c-8.065-30.987-19.211-61.133-25.088-92.678
				C172.92,133.255,163.283,135.945,164.457,142.248L164.457,142.248z"/>
		</g>
	</g>
</g>
<g>
	<g>
		<path fill="#FFFFFF" d="M201.37,110.98c5.167,12.188,6.634,26.191,10.439,39.183c5.027,16.309,9.566,32.723,14.105,49.135
			c6.494,23.154,10.928,46.237,15.851,69.216c4.294,20.046,9.565,39.881,13.86,59.927"/>
		<g>
			<path fill="#FFFFFF" d="M196.549,112.309c3.115,7.626,4.937,15.609,6.685,23.637c1.979,9.096,4.521,17.931,7.163,26.852
				c5.552,18.741,10.955,37.588,15.562,56.586c4.358,17.977,7.85,36.147,11.803,54.215c4.107,18.778,8.988,37.379,13.044,56.17
				c1.36,6.303,11,3.629,9.643-2.658c-3.92-18.165-8.563-36.162-12.628-54.294c-4.187-18.674-7.765-37.476-12.219-56.091
				c-4.396-18.375-9.702-36.569-15.006-54.699c-2.627-8.979-5.337-17.851-7.34-26.998c-1.885-8.605-3.722-17.196-7.063-25.378
				C203.787,103.765,194.109,106.337,196.549,112.309L196.549,112.309z"/>
		</g>
	</g>
	<g>
		<path fill="#FFFFFF" d="M232.933,224.896c18.265-5.447,40.16-3.49,57.621-10.299"/>
		<g>
			<path fill="#FFFFFF" d="M234.262,229.717c18.854-5.379,39.126-3.396,57.621-10.299c5.985-2.233,3.396-11.902-2.658-9.643
				c-18.479,6.896-38.766,4.919-57.621,10.299C225.413,221.841,228.048,231.49,234.262,229.717L234.262,229.717z"/>
		</g>
	</g>
	<g>
		<path fill="#FFFFFF" d="M262.798,92.196c15.922,52.838,31.249,105.29,42.875,159.559c4.398,20.534,14.56,39.322,18.959,59.857"/>
		<g>
			<path fill="#FFFFFF" d="M257.977,93.525c11.201,37.185,22.167,74.446,31.735,112.09c4.734,18.625,8.124,37.692,13.344,56.173
				c4.886,17.298,12.837,33.554,16.755,51.153c1.401,6.294,11.041,3.624,9.643-2.658c-3.914-17.58-11.67-33.928-16.755-51.154
				c-5.426-18.384-8.642-37.572-13.344-56.172c-9.52-37.653-20.535-74.909-31.735-112.09
				C265.765,84.708,256.111,87.334,257.977,93.525L257.977,93.525z"/>
		</g>
	</g>
</g>
<g>
	<g>
		<path fill="#FFFFFF" d="M312.13,67.733c17.411,83.709,39.718,166.398,57.128,250.107"/>
		<g>
			<path fill="#FFFFFF" d="M307.309,69.062c17.454,83.729,39.675,166.378,57.128,250.107c1.315,6.312,10.954,3.634,9.643-2.658
				c-17.453-83.729-39.674-166.378-57.128-250.107C315.636,60.092,305.997,62.77,307.309,69.062L307.309,69.062z"/>
		</g>
	</g>
	<g>
		<path fill="#FFFFFF" d="M339.509,189.543c24.804-5.158,49.062-12.928,74.407-15.476"/>
		<g>
			<path fill="#FFFFFF" d="M340.838,194.365c24.344-5.128,48.261-12.673,73.078-15.297c6.345-0.671,6.41-10.678,0-10
				c-25.748,2.722-50.483,10.335-75.736,15.654C331.871,186.051,334.547,195.69,340.838,194.365L340.838,194.365z"/>
		</g>
	</g>
	<g>
		<path fill="#FFFFFF" d="M390.326,47.553c16.615,86.427,32.576,172.991,50.496,259.147"/>
		<g>
			<path fill="#FFFFFF" d="M385.505,48.882c16.609,86.425,32.589,172.978,50.496,259.147c1.312,6.313,10.95,3.634,9.643-2.658
				c-17.907-86.17-33.886-172.722-50.496-259.147C393.932,39.896,384.294,42.583,385.505,48.882L385.505,48.882z"/>
		</g>
	</g>
</g>
<g>
	<path fill="#FFFFFF" stroke="#FFFFFF" stroke-width="3" stroke-miterlimit="10" d="M527.124,295.398"/>
	<g>
		<path fill="#FFFFFF" d="M430.737,20.011c14.316-3.187,26.536-6.589,39.912-10.933"/>
		<g>
			<path fill="#FFFFFF" d="M432.066,24.833c13.478-3.028,26.768-6.688,39.912-10.933c6.11-1.973,3.496-11.63-2.658-9.643
				c-13.145,4.244-26.435,7.905-39.912,10.933C423.117,16.603,425.785,26.244,432.066,24.833L432.066,24.833z"/>
		</g>
	</g>
	<g>
		<path fill="#FFFFFF" d="M470.359,7.777c6.374,28.633,6.095,58.063,10.516,87.13c4.204,31.165,7.759,62.473,11.313,93.782
			c2.319,16.558,5,31.671,3.271,48.447"/>
		<g>
			<path fill="#FFFFFF" d="M465.538,9.106c3.967,18.24,5.355,36.827,6.952,55.387c1.662,19.32,4.518,38.479,6.914,57.716
				c2.433,19.535,4.671,39.093,6.896,58.653c2.133,18.754,5.931,37.32,4.159,56.274c-0.601,6.422,9.405,6.364,10,0
				c1.772-18.959-2.028-37.518-4.159-56.274c-2.224-19.56-4.475-39.117-6.896-58.653c-2.385-19.239-5.23-38.398-6.914-57.716
				c-1.694-19.442-3.153-38.935-7.31-58.045C473.811,0.147,464.171,2.82,465.538,9.106L465.538,9.106z"/>
		</g>
	</g>
	<g>
		<path fill="#FFFFFF" d="M431.895,19.071c11.878,53.36,20.936,109.397,39.176,160.659c4.488,14.027,8.045,51.481,21.786,57.985"/>
		<g>
			<path fill="#FFFFFF" d="M427.073,20.4c10.218,46.05,18.186,92.666,31.733,137.914c2.763,9.229,6.464,18.253,8.771,27.602
				c1.714,6.938,2.987,13.983,4.6,20.945c2.72,11.739,6.328,29.059,18.155,35.171c5.719,2.956,10.777-5.673,5.047-8.635
				c-4.746-2.453-7.066-8.145-8.864-12.884c-2.585-6.817-4.212-14.001-5.777-21.107c-1.375-6.246-2.531-12.55-4.179-18.733
				c-2.724-10.217-6.713-20.172-9.685-30.339c-12.729-43.539-20.344-88.359-30.159-132.592
				C435.319,11.447,425.679,14.117,427.073,20.4L427.073,20.4z"/>
		</g>
	</g>
	<g>
		<path fill="#FFFFFF" d="M498.213,255.646c-18.075,4.708-16.907,34.499,2.397,32.25c21.909-2.827,22.479-30.956,1.218-34.419"/>
		<g>
			<path fill="#FFFFFF" d="M496.884,250.825c-10.481,3.056-16.867,12.762-16.489,23.556c0.388,11.067,9.023,19.496,20.216,18.516
				c11.669-1.022,20.527-9.521,21.751-21.103c1.235-11.702-8.384-21.107-19.204-23.138c-6.302-1.183-8.991,8.454-2.658,9.643
				c6.287,1.18,11.581,4.911,11.911,11.758c0.347,7.178-5.528,11.54-11.934,12.836c-5.763,1.166-9.649-3.11-10.082-8.512
				c-0.505-6.29,3.028-12.129,9.147-13.913C505.72,258.667,503.089,249.016,496.884,250.825L496.884,250.825z"/>
		</g>
	</g>
</g>
<g>
	<g>
		<path fill="#FFFFFF" d="M122.99,83.784c10.987,2.955,27.987,12.251,29.953,24.619c0.303,1.906,3.193,1.094,2.893-0.798
			c-1.104-6.945-6.729-12.422-12.13-16.441c-5.953-4.43-12.703-8.333-19.917-10.273C121.917,80.388,121.124,83.282,122.99,83.784
			L122.99,83.784z"/>
	</g>
</g>
<g>
	<g>
		<path fill="#FFFFFF" d="M141.329,105.398c3.465,2.978,7.701,5.315,12.394,5.106c1.927-0.086,1.935-3.086,0-3
			c-3.889,0.173-7.396-1.755-10.272-4.227C141.991,102.023,139.859,104.135,141.329,105.398L141.329,105.398z"/>
	</g>
</g>
<g>
	<g>
		<path fill="#FFFFFF" d="M155.783,110.065c4.533-5.349,4.141-12.113,4.106-18.727c-0.01-1.934-3.01-1.935-3,0
			c0.029,5.646,0.681,11.993-3.228,16.606C152.419,109.41,154.53,111.543,155.783,110.065L155.783,110.065z"/>
	</g>
</g>
<g>
	<g>
		<path fill="#FFFFFF" d="M171.056,44.171c1.935,0,1.935-3,0-3S169.121,44.171,171.056,44.171L171.056,44.171z"/>
	</g>
</g>
<g>
	<g>
		<path fill="#FFFFFF" d="M175.39,39.838c1.935,0,1.935-3,0-3S173.455,39.838,175.39,39.838L175.39,39.838z"/>
	</g>
</g>
<g>
	<g>
		<path fill="#FFFFFF" d="M172.323,52.451c4.328,1.075,8.732,0.575,11.815-2.903c3.092-3.487,3.269-8.617,2.363-12.942
			c-0.396-1.893-3.288-1.09-2.893,0.798c0.67,3.201,0.557,6.48-1.126,9.356c-1.964,3.356-5.961,3.643-9.363,2.798
			C171.242,49.092,170.446,51.985,172.323,52.451L172.323,52.451z"/>
	</g>
</g>
<g>
	<g>
		<path fill="#FFFFFF" d="M16.395,61.107c4.598-3.78,9.514-7.022,14.79-9.774c1.716-0.895,0.199-3.484-1.514-2.591
			c-5.506,2.873-10.603,6.301-15.397,10.244C12.778,60.216,14.913,62.326,16.395,61.107L16.395,61.107z"/>
	</g>
</g>
<g>
	<g>
		<path fill="#FFFFFF" d="M21.57,54.247c2.018,5.624,3.066,11.577,6,16.841c0.942,1.689,3.534,0.177,2.591-1.515
			c-2.802-5.026-3.771-10.752-5.699-16.125C23.814,51.643,20.915,52.421,21.57,54.247L21.57,54.247z"/>
	</g>
</g>
<g>
	<g>
		<path fill="#FFFFFF" d="M32.35,49.403c0.125,5.924,0.931,12.031,3.522,17.417c0.843,1.752,3.389,0.223,2.591-1.514
			c-0.899-1.957-1.832-5.473-0.872-7.5c0.423-0.895,3.592,5.449,3.914,6.119c0.839,1.743,3.425,0.221,2.591-1.514
			c-1.226-2.548-4.023-10.417-8.23-7.072c-3.052,2.427-1.343,8.544,0.006,11.481c0.864-0.504,1.727-1.009,2.591-1.514
			c-2.353-4.89-2.999-10.538-3.113-15.903C35.309,47.472,32.309,47.468,32.35,49.403L32.35,49.403z"/>
	</g>
</g>
<g>
	<g>
		<path fill="#FFFFFF" d="M46.67,49.827c-1.997,2.187-2.027,5.755-1.412,8.482c0.582,2.579,3.329,5.023,6.058,3.682
			c4.327-2.126,1.422-10.59,0.369-13.917c-0.914,0.385-1.828,0.771-2.742,1.156c2.1,4.232,3.952,10.415,9.977,8.05
			c1.779-0.698,1.005-3.601-0.798-2.893c-2.153,0.845-3.221,0.157-4.313-1.755c-0.894-1.565-1.475-3.303-2.275-4.917
			c-0.76-1.53-3.252-0.455-2.742,1.156c0.913,2.882,1.751,5.963,1.635,9.007c-0.072,1.897-1.511,1.765-2.142,0.089
			c-0.599-1.592-0.731-4.665,0.506-6.021C50.092,50.523,47.977,48.396,46.67,49.827L46.67,49.827z"/>
	</g>
</g>
<g>
	<g>
		<path fill="#FFFFFF" d="M55.761,48.74c1.586-1.825,3.639-2.751,6.064-2.475c1.92,0.219,1.899-2.784,0-3
			C58.7,42.91,55.68,44.27,53.64,46.619C52.377,48.072,54.49,50.204,55.761,48.74L55.761,48.74z"/>
	</g>
</g>
<g>
	<g>
		<path fill="#FFFFFF" d="M54.213,39.666c-1.214,4.424,1.894,9.694,4.898,12.707c1.41,1.415,3.378,2.61,5.443,2.306
			c2.336-0.345,3.537-2.493,4.288-4.507c0.678-1.816-2.223-2.593-2.893-0.798c-0.445,1.193-1.12,2.652-2.606,2.278
			c-1.344-0.338-2.437-1.671-3.274-2.686c-1.702-2.063-3.724-5.731-2.964-8.502C57.618,38.594,54.724,37.802,54.213,39.666
			L54.213,39.666z"/>
	</g>
</g>
<g>
	<g>
		<path fill="#FFFFFF" d="M62.461,36.568c1.935,0,1.935-3,0-3S60.526,36.568,62.461,36.568L62.461,36.568z"/>
	</g>
</g>
<g>
	<g>
		<path fill="#FFFFFF" d="M62.461,36.568c1.935,0,1.935-3,0-3S60.526,36.568,62.461,36.568L62.461,36.568z"/>
	</g>
</g>
<g>
	<g>
		<path fill="#FFFFFF" d="M63.696,36.049c0.35,0.12,0.707,0.355,1.009,0.676c0.115,0.136,0.13,0.151,0.045,0.046
			c0.089,0.122,0.163,0.252,0.237,0.383c0.062,0.109,0.146,0.33,0.228,0.65c0.475,1.874,3.368,1.079,2.893-0.798
			c-0.474-1.869-1.806-3.232-3.614-3.85c-0.774-0.265-1.639,0.295-1.845,1.047C62.421,35.029,62.923,35.785,63.696,36.049
			L63.696,36.049z"/>
	</g>
</g>
<g>
	<g>
		<path fill="#FFFFFF" d="M75.892,30.634c-2.553,0.978-4.684,2.69-5.543,5.353c-0.475,1.469-0.02,4.836,1.952,5.162
			c1.966,0.324,3.408-0.972,5.223-1.461c1.093-0.295,2.904-0.243,2.155,1.107c-0.785,1.414-2.368,2.431-3.697,3.254
			c-1.641,1.016-0.136,3.612,1.514,2.591c2.167-1.342,8.493-6.458,4.218-9.142c-1.68-1.055-4.038-1.088-5.866-0.424
			c-0.87,0.316-1.663,0.808-2.534,1.119c-0.636,0.227,0.499-2.669,0.318-2.327c0.58-1.101,1.936-1.908,3.06-2.338
			C78.478,32.842,77.702,29.94,75.892,30.634L75.892,30.634z"/>
	</g>
</g>
<g>
	<g>
		<path fill="#FFFFFF" d="M92.707,26.042c2.433-0.87,4.738-2.03,7.033-3.208c1.722-0.884,0.204-3.473-1.514-2.591
			c-2.064,1.06-4.128,2.124-6.317,2.906C90.101,23.796,90.88,26.695,92.707,26.042L92.707,26.042z"/>
	</g>
</g>
<g>
	<g>
		<path fill="#FFFFFF" d="M90.929,17.899c3.052,6.104,5.994,17.697,15.162,12.914c1.716-0.896,0.199-3.484-1.514-2.591
			c-6.584,3.435-8.979-7.68-11.057-11.837C92.655,14.654,90.067,16.174,90.929,17.899L90.929,17.899z"/>
	</g>
</g>
<g>
	<g>
		<path fill="#FFFFFF" d="M99.093,14.825c2.16,4.288,3.835,8.868,6.932,12.602c0.95,1.146,3.007-0.075,2.507-1.459
			c-0.707-1.957-2.224-5.378-1.207-7.403c0.86-1.714,3.181,2.502,3.378,2.894c0.721,1.431,1.239,2.953,1.932,4.396
			c0.838,1.743,3.424,0.221,2.591-1.515c-1.64-3.413-3.534-10.641-8.849-8.672c-4.152,1.538-1.76,8.264-0.737,11.097
			c0.835-0.487,1.671-0.973,2.507-1.459c-2.902-3.5-4.438-7.976-6.462-11.995C100.813,11.583,98.226,13.103,99.093,14.825
			L99.093,14.825z"/>
	</g>
</g>
<g>
	<g>
		<path fill="#FFFFFF" d="M112.786,18.705c2.57,2.578,6.029,2.642,7.967-0.661c1.276-2.174,1.913-6.477-0.833-7.87
			c-3.538-1.795-8.503,3.161-7.67,6.676c1.199,5.061,8.007,6.664,12.068,4.217c1.655-0.997,0.147-3.592-1.514-2.591
			c-2.349,1.415-6.589,0.835-7.585-2.103c-0.548-1.619,2.806-4.06,3.399-3.469c0.622,0.62,0.002,2.771-0.455,3.625
			c-0.89,1.663-2.082,1.231-3.255,0.054C113.54,15.212,111.419,17.333,112.786,18.705L112.786,18.705z"/>
	</g>
</g>
<g>
	<g>
		<path fill="#FFFFFF" d="M27.788,88.225c-3.199-0.918-7.41-0.159-8.599,3.43c-1.211,3.655,1.656,6.653,5.013,7.607
			c6.936,1.973,5.987-9.334,3.815-12.682c-0.684,0.685-1.368,1.369-2.053,2.053c3.122,1.402,5.205,4.261,8.334,5.667
			c1.749,0.786,3.276-1.799,1.514-2.591c-3.121-1.402-5.205-4.261-8.333-5.667c-1.255-0.563-2.951,0.669-2.053,2.053
			c1.079,1.661,2.495,6.702,0.438,8.183c-1.46,1.051-3.932-1.64-3.989-2.953c-0.114-2.619,3.453-2.685,5.114-2.208
			C28.854,91.653,29.644,88.758,27.788,88.225L27.788,88.225z"/>
	</g>
</g>
<g>
	<g>
		<path fill="#FFFFFF" d="M38.813,90.709c-2.867-2.071-3.413-6.139-5.696-8.765c-0.606,0.785-1.212,1.57-1.817,2.356
			c1.319,0.659,2.09,1.694,2.311,3.104c0.276,0.98,1.788,1.592,2.507,0.662c0.667-0.864,1.339-1.657,2.115-2.424
			c2.125-2.102,3.234,1.158,3.712,2.762c0.914-0.385,1.828-0.771,2.742-1.156c-0.547-0.831-0.971-1.616-1.331-2.555
			c-0.08-0.278-0.16-0.555-0.24-0.833c-0.584-1.665,0.263-2.632,2.542-2.902c1.636,0.844,2.864,3.056,4.005,4.441
			c1.231,1.495,3.341-0.641,2.121-2.121c-2.476-3.006-5.567-7.565-9.883-4.759c-3.509,2.282-1.577,7.552,0.194,10.243
			c0.91,1.382,3.245,0.534,2.742-1.156c-0.725-2.433-1.612-4.873-4.185-5.762c-2.685-0.928-5.321,2.373-6.656,4.1
			c0.835,0.221,1.671,0.441,2.507,0.662c-0.624-2.209-1.673-3.774-3.689-4.896c-1.538-0.856-2.918,1.09-1.817,2.356
			c2.569,2.956,2.983,6.836,6.304,9.235C38.87,94.435,40.365,91.831,38.813,90.709L38.813,90.709z"/>
	</g>
</g>
<g>
	<g>
		<path fill="#FFFFFF" d="M51.788,80.118c3.328-1.024,9.082-3.864,8.313-8.196c-0.934-5.262-7.348-4.102-9.793-0.745
			c-2.728,3.744,1.526,8.112,4.716,9.49c3.656,1.579,8.658,1.385,10.661-2.572c0.871-1.722-1.717-3.241-2.591-1.515
			c-2.03,4.012-9.223,1.659-10.397-1.996c-1.021-3.177,4.905-4.527,4.434-1.722c-0.38,2.263-4.251,3.78-6.14,4.362
			C49.147,77.792,49.934,80.689,51.788,80.118L51.788,80.118z"/>
	</g>
</g>
<g>
	<g>
		<path fill="#FFFFFF" d="M4.241,97.562c2.761,2.699,4.24,6.334,6.015,9.696c0.786,1.488,3.331,0.453,2.742-1.156
			c-0.85-2.32-3.259-4.51-3.556-6.947c-0.287-2.353,4.277-2.746,5.623-2.128c1.941,0.891,2.868,3.188,3.291,5.123
			c0.413,1.89,3.305,1.088,2.893-0.798c-1.184-5.419-5.721-9.222-11.203-6.896c-2.139,0.908-3.833,2.818-3.539,5.224
			c0.333,2.727,2.68,4.712,3.6,7.221c0.914-0.385,1.828-0.771,2.742-1.156c-1.904-3.604-3.526-7.411-6.485-10.304
			C4.979,94.088,2.856,96.208,4.241,97.562L4.241,97.562z"/>
	</g>
</g>
<g>
	<g>
		<path fill="#FFFFFF" d="M74.795,62.456c-2.601,1.151-4.422,3.602-2.976,6.396c1.474,2.85,5.357,3.116,8.055,2.358
			c2.593-0.729,4.672-2.96,3.392-5.707c-1.129-2.423-3.855-3.967-6.315-4.698c-1.859-0.553-2.647,2.342-0.798,2.893
			c1.287,0.383,6.358,2.866,3.672,4.336c-1.41,0.771-3.613,0.921-4.924-0.134c-1.541-1.239,0.224-2.329,1.408-2.853
			C78.075,64.265,76.547,61.681,74.795,62.456L74.795,62.456z"/>
	</g>
</g>
<g>
	<g>
		<path fill="#FFFFFF" d="M84.545,48.206c-3.487,1.664-6.037,3.797-4.361,7.878c1.51,3.677,5.193,7.421,8.361,9.713
			c1.57,1.136,3.065-1.468,1.514-2.591c-2.333-1.688-4.24-4.103-5.956-6.389c-0.751-1.001-2.012-2.588-1.38-3.903
			c0.5-1.04,2.372-1.657,3.336-2.118C87.804,49.964,86.281,47.377,84.545,48.206L84.545,48.206z"/>
	</g>
</g>
<g>
	<g>
		<path fill="#FFFFFF" d="M81.809,62.547c2.327-1.594,4.207-3.625,6.054-5.735c1.269-1.449-0.845-3.58-2.121-2.121
			c-1.666,1.903-3.347,3.827-5.446,5.265C78.709,61.042,80.208,63.644,81.809,62.547L81.809,62.547z"/>
	</g>
</g>
<g>
	<g>
		<path fill="#FFFFFF" d="M96.707,53.042c2.433-0.87,4.738-2.03,7.033-3.208c1.722-0.884,0.204-3.473-1.514-2.591
			c-2.064,1.06-4.128,2.124-6.317,2.906C94.101,50.796,94.88,53.695,96.707,53.042L96.707,53.042z"/>
	</g>
</g>
<g>
	<g>
		<path fill="#FFFFFF" d="M94.929,44.899c3.052,6.104,5.994,17.697,15.162,12.914c1.716-0.896,0.199-3.484-1.514-2.591
			c-6.584,3.435-8.979-7.68-11.057-11.837C96.655,41.654,94.067,43.174,94.929,44.899L94.929,44.899z"/>
	</g>
</g>
<g>
	<g>
		<path fill="#FFFFFF" d="M103.093,41.826c2.16,4.288,3.835,8.868,6.932,12.602c0.95,1.146,3.007-0.075,2.507-1.459
			c-0.707-1.957-2.224-5.378-1.207-7.403c0.86-1.714,3.181,2.502,3.378,2.894c0.721,1.431,1.239,2.953,1.932,4.396
			c0.838,1.743,3.424,0.221,2.591-1.515c-1.64-3.413-3.534-10.641-8.849-8.672c-4.152,1.538-1.76,8.264-0.737,11.097
			c0.835-0.487,1.671-0.973,2.507-1.459c-2.902-3.5-4.438-7.976-6.462-11.995C104.813,38.583,102.226,40.103,103.093,41.826
			L103.093,41.826z"/>
	</g>
</g>
<g>
	<g>
		<path fill="#FFFFFF" d="M116.786,45.705c2.57,2.578,6.029,2.642,7.967-0.661c1.276-2.174,1.913-6.477-0.833-7.87
			c-3.538-1.795-8.503,3.161-7.67,6.676c1.199,5.061,8.007,6.664,12.068,4.217c1.655-0.997,0.147-3.592-1.514-2.591
			c-2.349,1.415-6.589,0.835-7.585-2.103c-0.548-1.619,2.806-4.06,3.399-3.469c0.622,0.62,0.002,2.771-0.455,3.625
			c-0.89,1.663-2.082,1.231-3.255,0.054C117.54,42.212,115.419,44.333,116.786,45.705L116.786,45.705z"/>
	</g>
</g>
<g>
	<g>
		<path fill="#FFFFFF" d="M152.789,22.225c-3.2-0.918-7.41-0.159-8.6,3.43c-1.212,3.655,1.656,6.653,5.013,7.607
			c6.937,1.973,5.988-9.334,3.815-12.682c-0.684,0.685-1.369,1.369-2.052,2.053c3.121,1.402,5.205,4.261,8.334,5.667
			c1.749,0.786,3.276-1.799,1.514-2.591c-3.122-1.402-5.205-4.261-8.334-5.667c-1.254-0.563-2.95,0.669-2.052,2.053
			c1.079,1.661,2.496,6.702,0.439,8.183c-1.46,1.051-3.932-1.64-3.989-2.953c-0.114-2.619,3.454-2.685,5.114-2.208
			C153.854,25.653,154.645,22.758,152.789,22.225L152.789,22.225z"/>
	</g>
</g>
<g>
	<g>
		<path fill="#FFFFFF" d="M163.813,24.709c-2.867-2.071-3.414-6.139-5.696-8.765c-0.606,0.785-1.212,1.57-1.817,2.356
			c1.319,0.66,2.089,1.694,2.311,3.104c0.277,0.979,1.788,1.592,2.507,0.662c0.667-0.864,1.339-1.657,2.114-2.424
			c2.125-2.102,3.235,1.158,3.713,2.762c0.914-0.385,1.828-0.771,2.742-1.156c-0.547-0.831-0.972-1.615-1.331-2.555
			c-0.08-0.278-0.16-0.555-0.24-0.833c-0.584-1.665,0.264-2.632,2.542-2.902c1.636,0.844,2.863,3.056,4.005,4.441
			c1.23,1.495,3.341-0.641,2.121-2.121c-2.476-3.006-5.565-7.565-9.882-4.759c-3.51,2.282-1.578,7.553,0.194,10.243
			c0.91,1.382,3.246,0.534,2.742-1.156c-0.725-2.433-1.613-4.873-4.185-5.762c-2.685-0.928-5.321,2.373-6.656,4.1
			c0.835,0.221,1.671,0.441,2.507,0.662c-0.624-2.208-1.673-3.773-3.689-4.896c-1.538-0.856-2.918,1.09-1.817,2.356
			c2.569,2.956,2.983,6.836,6.304,9.235C163.87,28.435,165.365,25.831,163.813,24.709L163.813,24.709z"/>
	</g>
</g>
<g>
	<g>
		<path fill="#FFFFFF" d="M176.788,14.118c3.328-1.025,9.082-3.864,8.313-8.196c-0.934-5.262-7.349-4.102-9.794-0.745
			c-2.728,3.744,1.525,8.112,4.716,9.49c3.656,1.579,8.658,1.385,10.661-2.572c0.872-1.721-1.716-3.24-2.59-1.514
			c-2.031,4.011-9.224,1.659-10.398-1.997c-1.021-3.177,4.906-4.527,4.435-1.722c-0.381,2.263-4.251,3.78-6.14,4.362
			C174.147,11.792,174.935,14.689,176.788,14.118L176.788,14.118z"/>
	</g>
</g>
<g>
	<g>
		<path fill="#FFFFFF" d="M137.795,27.956c-2.918,1.419-5.614,1.921-5.796,5.626c-0.157,3.193,4.313,5.577,6.986,5.648
			c2.183,0.058,5.057-0.708,5.74-3.139c0.879-3.13-1.345-5.265-3.916-6.636c-1.567-0.835-2.881,1.066-1.817,2.356
			c2.876,3.488,5.209,6.651,6.364,11.088c0.311,1.193,1.018,3.47-0.57,3.94c-1.512,0.448-3.432,0.166-4.984,0.161
			c-1.935-0.007-1.934,2.993,0,3c3.196,0.011,8.871,0.564,8.913-4.122c0.058-6.418-3.725-11.487-7.603-16.189
			c-0.606,0.785-1.212,1.57-1.817,2.356c0.982,0.405,1.8,1.037,2.455,1.896c1.656,2.313-2.617,2.298-3.307,2.178
			c-2.48-0.43-3.912-3.632-1.162-4.691c0.709-0.273,1.345-0.551,2.027-0.883C141.048,29.701,139.527,27.114,137.795,27.956
			L137.795,27.956z"/>
	</g>
</g>
</svg>
