<?xml version="1.0" encoding="utf-8"?>
<!-- Generator: Adobe Illustrator 16.0.0, SVG Export Plug-In . SVG Version: 6.00 Build 0)  -->
<!DOCTYPE svg PUBLIC "-//W3C//DTD SVG 1.1//EN" "http://www.w3.org/Graphics/SVG/1.1/DTD/svg11.dtd">
<svg version="1.1" id="Layer_1" xmlns="http://www.w3.org/2000/svg" xmlns:xlink="http://www.w3.org/1999/xlink" x="0px" y="0px"
	 width="125.231px" height="65.625px" viewBox="0 0 125.231 65.625" enable-background="new 0 0 125.231 65.625"
	 xml:space="preserve">
<g>
	<g>
		<path d="M23.576,20.095c-3.889-3.503-7.959-5.914-13.356-5.392c-4.805,0.464-8.486,4.233-9.589,8.759
			c-2.132,8.752,5.912,19.578,14.878,19.589c1.935,0.002,1.935-2.998,0-3C8.942,40.043,4.853,33.773,3.577,27.973
			c-0.982-4.47,1.492-8.464,5.711-10.019c4.587-1.69,8.966,1.379,12.167,4.263C22.888,23.507,25.017,21.393,23.576,20.095
			L23.576,20.095z"/>
	</g>
</g>
<g>
	<g>
		<path d="M13.751,40.91c-1.639,3.216-3.957,7.464-1.051,10.672c3.674,4.055,8.457,6.108,13.71,7.276
			c4.606,1.024,12.477,2.17,16.749-0.51c3.964-2.486,5.684-6.42,3.506-10.726c-0.874-1.727-3.461-0.208-2.591,1.514
			c5.037,9.959-14.647,7.322-18.313,6.508c-2.747-0.611-5.208-1.696-7.554-3.219c-1.833-1.189-4.22-2.99-3.756-5.662
			c0.256-1.472,1.21-3.006,1.89-4.339C17.218,40.705,14.63,39.186,13.751,40.91L13.751,40.91z"/>
	</g>
</g>
<g>
	<g>
		<path d="M43.959,49.252c2.993,4.627,9.216,6.352,14.01,8.541c6.753,3.083,13.617,3.827,20.945,3.879
			c9.445,0.066,25.959-4.344,29.014-14.861c0.541-1.862-2.354-2.651-2.893-0.797c-1.336,4.601-6.019,6.912-10.028,8.848
			c-5.804,2.8-11.43,3.844-17.857,3.798c-5.768-0.04-11.06-0.936-16.456-2.957c-4.187-1.568-11.641-4.097-14.143-7.964
			C45.503,46.121,42.905,47.624,43.959,49.252L43.959,49.252z"/>
	</g>
</g>
<g>
	<g>
		<path d="M106.083,47.743c4.411,1.846,10.918,2.943,14.777-0.827c3.979-3.885,4.612-9.322,3.864-14.607
			c-1.338-9.454-15.205-19.998-24.354-14.57c-1.662,0.986-0.154,3.58,1.514,2.591c7.723-4.582,17.157,4.954,19.64,11.536
			c1.341,3.557,0.471,8.168-1.354,11.351c-2.708,4.722-9.275,3.313-13.29,1.634C105.095,44.104,104.325,47.007,106.083,47.743
			L106.083,47.743z"/>
	</g>
</g>
<g>
	<g>
		<path d="M24.639,21.403c0.649-7.142,11.643-8.787,17.082-8.964c6.039-0.196,11.833-0.096,15.771,5.207
			c1.14,1.535,3.746,0.042,2.591-1.514C54.787,9,46.646,8.934,38.431,9.646c-6.792,0.588-16.078,3.903-16.792,11.757
			C21.463,23.33,24.465,23.313,24.639,21.403L24.639,21.403z"/>
	</g>
</g>
<g>
	<g>
		<path d="M102.594,20.657c-1.388-4.788-3.66-9.161-7.333-12.586C91.044,4.137,84.297,3.163,78.81,2.658
			c-4.713-0.434-9.043-0.329-12.75,2.87c-3.479,3.001-7.211,6.274-7.847,11.015c-0.257,1.913,2.747,1.888,3,0
			c0.507-3.778,4.406-6.421,6.968-8.894c3.252-3.138,8.324-2.203,12.354-1.832c9.89,0.91,16.413,6.139,19.166,15.638
			C100.239,23.309,103.134,22.52,102.594,20.657L102.594,20.657z"/>
	</g>
</g>
</svg>
