<?xml version="1.0" encoding="utf-8"?>
<!-- Generator: Adobe Illustrator 16.0.0, SVG Export Plug-In . SVG Version: 6.00 Build 0)  -->
<!DOCTYPE svg PUBLIC "-//W3C//DTD SVG 1.1//EN" "http://www.w3.org/Graphics/SVG/1.1/DTD/svg11.dtd">
<svg version="1.1" id="Layer_1" xmlns="http://www.w3.org/2000/svg" xmlns:xlink="http://www.w3.org/1999/xlink" x="0px" y="0px"
	 width="182.875px" height="135.5px" viewBox="0 0 182.875 135.5" enable-background="new 0 0 182.875 135.5" xml:space="preserve">
<g>
	<g>
		<g>
			<path fill="#FFFFFF" d="M29.948,18.469c-6.214-0.664-15.049,1.571-14.576,9.444c0.466,7.761,9.577,9.383,15.678,8.448
				c1.907-0.292,1.094-3.183-0.798-2.893c-4.407,0.675-11.558-0.183-11.903-5.938c-0.353-5.875,7.539-6.496,11.599-6.062
				C31.871,21.674,31.851,18.672,29.948,18.469L29.948,18.469z"/>
		</g>
	</g>
	<g>
		<g>
			<path fill="#FFFFFF" d="M46.113,18.469c-11.538-0.472-10.945,14.422-1.571,17.62c4.476,1.527,9.763-0.456,10.747-5.32
				c1.022-5.057-2.651-10.009-7.013-12.096c-1.736-0.83-3.259,1.756-1.515,2.591c3.055,1.461,5.422,4.157,5.667,7.641
				c0.27,3.835-3.276,5.085-6.515,4.445c-6.822-1.349-8.032-12.218,0.199-11.881C48.048,21.548,48.041,18.548,46.113,18.469
				L46.113,18.469z"/>
		</g>
	</g>
	<g>
		<g>
			<path fill="#FFFFFF" d="M59.374,19.969c0.001,5.003,0.076,9.976,0.703,14.946c0.239,1.893,3.242,1.916,3,0
				c-0.627-4.97-0.702-9.943-0.703-14.946C62.373,18.035,59.373,18.035,59.374,19.969L59.374,19.969z"/>
		</g>
	</g>
	<g>
		<g>
			<path fill="#FFFFFF" d="M60.569,27.394c2.558-0.919,5.065-1.953,7.561-3.027c1.331-0.572,2.871-1.443,4.344-1.552
				c1.396-0.104,0.956,10.328,0.956,11.354c0,1.935,3,1.935,3,0c0-3.311,0.136-6.684-0.28-9.977c-0.191-1.514-0.592-3.355-2.13-4.06
				c-1.604-0.736-3.399-0.011-4.922,0.596c-3.119,1.243-6.164,2.637-9.327,3.773C57.965,25.15,58.744,28.05,60.569,27.394
				L60.569,27.394z"/>
		</g>
	</g>
	<g>
		<g>
			<path fill="#FFFFFF" d="M83.419,25.748c3.685-1.646,8.179-3.46,11.536-0.235c1.395,1.34,3.519-0.779,2.121-2.121
				c-4.471-4.296-10.129-2.485-15.171-0.235C80.141,23.945,81.668,26.529,83.419,25.748L83.419,25.748z"/>
		</g>
	</g>
	<g>
		<g>
			<path fill="#FFFFFF" d="M87.541,17.328c-1.759,5.263-2.166,11.794-1.067,17.22c0.387,1.91,1.321,3.826,3.274,4.471
				c2.604,0.861,5.201-2.114,6.625-3.791c1.245-1.465-0.867-3.598-2.121-2.121c-0.561,0.66-2.935,3.834-4.026,2.807
				c-1.212-1.141-1.159-3.949-1.232-5.441c-0.2-4.051,0.147-8.481,1.439-12.347C91.048,16.286,88.15,15.503,87.541,17.328
				L87.541,17.328z"/>
		</g>
	</g>
	<g>
		<g>
			<path fill="#FFFFFF" d="M101.543,20.716c0,4.608,0,9.217,0,13.825c1,0,2,0,3,0c-0.045-4.128-0.859-8.709,1.039-12.554
				c0.962-1.948,3.291-4.292,5.392-2.599c1.435,1.156,2.494,2.848,3.66,4.256c1.234,1.492,3.345-0.643,2.121-2.121
				c-3.178-3.84-6.3-8.034-11.258-4.096c-5.165,4.102-4.017,11.356-3.954,17.113c0.021,1.934,3,1.936,3,0c0-4.608,0-9.217,0-13.825
				C104.543,18.782,101.543,18.782,101.543,20.716L101.543,20.716z"/>
		</g>
	</g>
	<g>
		<g>
			<path fill="#FFFFFF" d="M126.238,20.337c-8,0.727-12.365,11.485-5.555,16.688c3.825,2.922,9.893,1.286,12.346-2.638
				c1.401-2.24,1.842-4.774,1.404-7.37c-0.405-2.393-2.583-4.277-3.737-6.311c-0.955-1.682-3.547-0.171-2.591,1.514
				c1.614,2.842,3.977,4.596,3.363,8.185c-0.696,4.07-5.175,6.17-8.76,4.35c-5.388-2.735-1.351-10.975,3.529-11.418
				C128.148,23.164,128.165,20.162,126.238,20.337L126.238,20.337z"/>
		</g>
	</g>
	<g>
		<g>
			<path fill="#FFFFFF" d="M138.795,11.001c0,8.968,0,17.935,0,26.903c0,1.935,3,1.935,3,0c0-8.968,0-17.935,0-26.903
				C141.795,9.067,138.795,9.067,138.795,11.001L138.795,11.001z"/>
		</g>
	</g>
	<g>
		<g>
			<path fill="#FFFFFF" d="M158.92,19.216c-2.988-0.075-7.943-1.343-10.398,1.067c-2.132,2.093-2.641,5.418-0.795,7.832
				c1.902,2.487,5.461,3.328,8.122,4.704c0.395,0.204,2.679,1.433,2.403,2.075c-0.354,0.824-1.987,1.181-2.71,1.409
				c-2.187,0.691-4.538,0.813-6.813,0.847c-1.933,0.029-1.936,3.029,0,3c3.246-0.049,15.896-1.177,11.801-7.376
				c-1.854-2.806-5.838-3.638-8.662-5.12c-2.765-1.451-3.311-5.281,0.7-5.693c2.091-0.215,4.258,0.202,6.353,0.254
				C160.856,22.265,160.852,19.265,158.92,19.216L158.92,19.216z"/>
		</g>
	</g>
</g>
<g>
	<g>
		<path fill="#FFFFFF" d="M38.031,101.057c6.911,0,13.823,0,20.734,0c1.935,0,1.935-3,0-3c-6.911,0-13.823,0-20.734,0
			C36.096,98.057,36.096,101.057,38.031,101.057L38.031,101.057z"/>
	</g>
</g>
<g>
	<g>
		<path fill="#FFFFFF" d="M37.334,100.618c3.296-3.452,7.071-6.502,9.372-10.765c0.918-1.703-1.671-3.217-2.591-1.515
			c-2.175,4.03-5.787,6.895-8.902,10.159C33.877,99.895,35.996,102.02,37.334,100.618L37.334,100.618z"/>
	</g>
</g>
<g>
	<g>
		<path fill="#FFFFFF" d="M34.861,101.365c3.093,2.959,5.866,6.217,8.786,9.341c1.323,1.416,3.44-0.71,2.121-2.121
			c-2.92-3.125-5.692-6.383-8.786-9.341C35.585,97.907,33.461,100.026,34.861,101.365L34.861,101.365z"/>
	</g>
</g>
<g>
	<g>
		<path fill="#FFFFFF" d="M88.243,89.494c0.988,4.545,0.999,9.17,1,13.8c0,1.935,3,1.935,3,0c-0.002-4.902-0.062-9.788-1.108-14.598
			C90.725,86.806,87.833,87.608,88.243,89.494L88.243,89.494z"/>
	</g>
</g>
<g>
	<g>
		<path fill="#FFFFFF" d="M77.384,99.123c3.306,3.883,7.321,7.626,11.9,9.95c1.721,0.873,3.239-1.715,1.514-2.591
			c-4.373-2.219-8.134-5.771-11.293-9.48C78.249,95.527,76.137,97.659,77.384,99.123L77.384,99.123z"/>
	</g>
</g>
<g>
	<g>
		<path fill="#FFFFFF" d="M90.088,108.103c6.25-0.959,9.583-6.045,14.416-9.492c1.56-1.113,0.064-3.717-1.515-2.591
			c-4.544,3.241-7.855,8.293-13.699,9.19C87.383,105.503,88.196,108.394,90.088,108.103L90.088,108.103z"/>
	</g>
</g>
<g>
	<g>
		<path fill="#FFFFFF" d="M122.068,102.125c5.791-1.013,11.685-0.368,17.524-0.32c1.935,0.016,1.934-2.984,0-3
			c-6.132-0.05-12.24-0.637-18.322,0.427C119.367,99.565,120.176,102.456,122.068,102.125L122.068,102.125z"/>
	</g>
</g>
<g>
	<g>
		<path fill="#FFFFFF" d="M133.928,90.615c1.292,4.107,4.502,7.016,7.766,9.629c1.494,1.197,3.631-0.912,2.121-2.121
			c-2.809-2.25-5.876-4.749-6.995-8.306C136.243,87.978,133.346,88.764,133.928,90.615L133.928,90.615z"/>
	</g>
</g>
<g>
	<g>
		<path fill="#FFFFFF" d="M142.162,99.548c-2.414,3.914-5.648,7.197-8.434,10.836c-1.176,1.537,1.432,3.028,2.591,1.514
			c2.79-3.644,6.014-6.913,8.434-10.836C145.771,99.41,143.176,97.905,142.162,99.548L142.162,99.548z"/>
	</g>
</g>
<g>
	<g>
		<path fill="#FFFFFF" d="M90.136,76.018c0.023-5.147,0.239-10.265-0.756-15.346c-0.372-1.897-3.263-1.092-2.893,0.798
			c0.941,4.804,0.671,9.683,0.649,14.548C87.127,77.953,90.127,77.952,90.136,76.018L90.136,76.018z"/>
	</g>
</g>
<g>
	<g>
		<path fill="#FFFFFF" d="M79.856,67.737c2.521-3.069,4.617-7.007,8.827-7.835c1.897-0.373,1.092-3.264-0.798-2.893
			c-4.832,0.95-7.252,5.077-10.15,8.607C76.518,67.098,78.628,69.233,79.856,67.737L79.856,67.737z"/>
	</g>
</g>
<g>
	<g>
		<path fill="#FFFFFF" d="M88.939,59.154c4.02,0.866,6.235,5.069,8.241,8.28c1.022,1.636,3.619,0.131,2.591-1.515
			c-2.434-3.895-5.18-8.612-10.034-9.658C87.85,55.855,87.048,58.747,88.939,59.154L88.939,59.154z"/>
	</g>
</g>
<g>
	<g>
		<g>
			<g>
				<g>
					<path fill="#FFFFFF" d="M108.001,80.501c0.086,0.07,0.281,0.03,0.243-0.162l-0.331-0.137L108.001,80.501z"/>
					<path fill="#FFFFFF" d="M108.614,79.206c-0.161-0.227-0.442-0.487-0.747-0.341c0.318,0.224,0.186,0.278,0.564,0.52
						c0.039,0.193-0.106,0.336-0.228,0.304c0.085,0.068-0.073,0.299,0.135,0.403c0.256-0.25,0.267-0.568,0.055-0.899
						C108.467,79.121,108.553,79.19,108.614,79.206z"/>
					<path fill="#FFFFFF" d="M109.13,60.387l-0.04,0.121C109.113,60.475,109.125,60.434,109.13,60.387z"/>
					<path fill="#FFFFFF" d="M105.291,51.458c0.089-0.008,0.126-0.041,0.13-0.071C105.338,51.409,105.271,51.429,105.291,51.458z"/>
					<path fill="#FFFFFF" d="M103.3,51.093c0.043,0.008,0.079,0.015,0.117,0.022C103.373,51.085,103.327,51.068,103.3,51.093z"/>
					<path fill="#FFFFFF" d="M109.13,60.387l0.104-0.312C109.126,60.054,109.154,60.235,109.13,60.387z"/>
					<path fill="#FFFFFF" d="M107.816,76.611c0.016,0.065,0.047,0.12,0.087,0.169l-0.035-0.159L107.816,76.611z"/>
					<path fill="#FFFFFF" d="M109.398,65.527l0,0.095c0.038,0.028,0.083,0.054,0.135,0.079L109.398,65.527z"/>
					<path fill="#FFFFFF" d="M109.449,69.472c0.012-0.089-0.269-0.12-0.392-0.154c0.116,0.05,0.171,0.116,0.193,0.194
						C109.304,69.513,109.368,69.502,109.449,69.472z"/>
					<path fill="#FFFFFF" d="M108.955,75.727l0.039,0.111C108.983,75.808,108.967,75.762,108.955,75.727z"/>
					<path fill="#FFFFFF" d="M109.459,62.704c0.042-0.007,0.078-0.021,0.101-0.036C109.524,62.668,109.491,62.682,109.459,62.704z"
						/>
					<path fill="#FFFFFF" d="M104.094,79.182c-0.003,0.02,0.001,0.033,0,0.05C104.117,79.203,104.124,79.183,104.094,79.182z"/>
					<path fill="#FFFFFF" d="M108.667,80.574l-0.063,0.015c-0.007,0.053-0.014,0.105-0.014,0.157L108.667,80.574z"/>
					<path fill="#FFFFFF" d="M99.656,50.733c0.008,0.002,0.01,0.003,0.017,0.005C99.769,50.706,99.714,50.712,99.656,50.733z"/>
					<path fill="#FFFFFF" d="M69.55,56.606c0.251-0.379,0.323,0.617,0.602,0.046C70.042,56.706,69.714,56.134,69.55,56.606z"/>
					<path fill="#FFFFFF" d="M107.853,76.509c-0.003-0.053-0.005-0.107-0.003-0.162C107.841,76.42,107.841,76.47,107.853,76.509z"/>
					<path fill="#FFFFFF" d="M70.152,56.652h0.002l0.026-0.059C70.169,56.618,70.162,56.632,70.152,56.652z"/>
					<path fill="#FFFFFF" d="M91.262,50.902c0.018,0.049,0.051,0.087,0.086,0.123C91.345,50.996,91.325,50.961,91.262,50.902z"/>
					<path fill="#FFFFFF" d="M97.516,51.302l-0.155-0.038C97.422,51.29,97.472,51.298,97.516,51.302z"/>
					<path fill="#FFFFFF" d="M88.015,51.298c-0.084-0.021-0.113-0.06-0.228-0.022c0.011,0.014,0.021,0.024,0.035,0.034
						C87.864,51.271,87.919,51.254,88.015,51.298z"/>
					<path fill="#FFFFFF" d="M84.635,51.3c0.018,0.021,0.042,0.038,0.062,0.057c0.034-0.005,0.073-0.01,0.107-0.015L84.635,51.3z"/>
					<path fill="#FFFFFF" d="M93.823,79.317c0.074,0.079,0.12,0.166,0.156,0.252C93.927,79.37,94.423,79.298,93.823,79.317z"/>
					<path fill="#FFFFFF" d="M107.974,76.609c-0.071-0.02-0.106-0.049-0.121-0.101l0.015,0.112
						C107.91,76.631,107.949,76.633,107.974,76.609z"/>
					<path fill="#FFFFFF" d="M87.877,53.516l-0.537-0.042C87.49,53.501,87.686,53.516,87.877,53.516z"/>
					<path fill="#FFFFFF" d="M71.857,79.024l0.034,0.023C71.897,79.032,71.89,79.024,71.857,79.024z"/>
					<path fill="#FFFFFF" d="M85.747,53.516c-0.096-0.099-0.198-0.157-0.303-0.194c-0.022,0.022-0.047,0.04-0.062,0.072
						L85.747,53.516z"/>
					<path fill="#FFFFFF" d="M93.98,79.572l-0.001-0.003L93.98,79.572z"/>
					<path fill="#FFFFFF" d="M97.517,78.905c-0.512-0.008-0.24,0.361-0.349,0.574c-0.611,0.104-0.283-0.272-0.491-0.461
						c-0.381,0.098-0.674,0.437-0.958,0.422c-0.021-0.061-0.077-0.083-0.012-0.159c-0.403,0.293-1.197,0.014-1.667,0.383
						c-0.035-0.033-0.052-0.064-0.061-0.092c0.076,0.185,0.087,0.373,0.072,0.507c-0.229,0.006-0.426,0.233-0.512-0.008
						c0.141,0.007,0.152-0.09,0.218-0.166l-0.241,0.105c-0.216-0.347,0.328-0.12,0.328-0.377c-0.468,0.113-1.015,0.4-1.374,0.302
						c-0.075-0.34,0.84-0.114,0.361-0.417l0.556,0.13c-0.425-0.536,0.337,0.038-0.053-0.536c-0.731-0.099-0.818,0.173-1.547,0.074
						c-0.164,0.189,0.055,0.279-0.11,0.468c-1.037,0.339-0.816-0.854-1.578-0.402c-0.197,0.227-0.274,0.656-0.816,0.429l0.185-0.384
						c-0.708-0.038-0.404,0.552-1.146,0.293c0.132-0.151,0.557-0.127,0.449-0.173c-0.48-0.303-0.339,0.218-0.709,0.218l-0.076-0.34
						c-0.754,0.053-1.584,0.299-2.419,0.361c0.046-0.101,0.189-0.208-0.006-0.312c-1.053,0.17-2.248-0.042-3.263-0.243l-0.388,0.293
						c-0.09-0.003-0.167-0.132-0.07-0.189c-0.396-0.111-0.021,0.186-0.21,0.302c-0.226,0.021-0.297-0.169-0.155-0.257
						c-0.699,0.249-1.99,0.536-2.726,0.222l0.144-0.087c-0.573-0.119-0.646,0.602-1.178,0.328l0.102-0.052
						c-1.244-0.127-2.618,0.142-3.567-0.301c-0.181,0.423-1.231-0.188-1.311,0.401c-0.344-0.146-0.506-0.245-0.621-0.333
						c-0.048-0.087-0.107-0.163-0.146-0.261c-0.015-0.027-0.327,0.36-0.554,0.428l-0.002-0.002l0.309-0.309
						c0,0.026-0.324,0.144-0.324,0.118c0-0.016,0.369-0.332,0.369-0.316c0,0.004-0.079-0.035-0.079-0.04
						c-0.018,0.036-0.138,0.143-0.227,0.186c-0.07-0.066-0.016-0.236,0.075-0.322c0.091-0.141,0.219-0.387,0.298-0.372l-0.261-1.145
						c0.124,0.025,0.167,0.217,0.246,0.369c-0.314-0.611,0.325-0.111,0.037-0.671c-0.07,0.075-0.184-0.041-0.246-0.053
						c0.187-0.279,0.188-0.915,0.109-1.385l0.213,0.09c0.054-0.849-0.102-1.79-0.098-2.743c-0.099,0.342-0.467,0.263-0.503-0.016
						l0.326-0.112c-0.202-0.18-0.124,0.292-0.37-0.079c0.038-0.356,0.37-0.239,0.476-0.035l-0.113-0.433
						c0.097-0.025,0.148,0.076,0.272,0.103c-0.202-0.178,0.327-0.747-0.024-1.003l0.097-0.024c0.002-0.953-0.109-1.384-0.126-2.161
						c-0.281-0.015-0.219-0.318-0.446-0.549c0.089-0.57,0.311-1.203,0.287-1.891c-0.14-0.482-0.238-0.141-0.405-0.358
						c0.256-0.036,0.232-0.722,0.416-0.366c-0.042-0.825-0.051-1.053-0.259-2.096c-0.105,0.113-0.15,0.24-0.238,0.175
						c-0.042-0.189,0.107-0.431,0.23-0.404l0.026,0.05c-0.384-1.171,0.747-2.702,0.213-3.634l0.026,0.052l-0.278-0.966
						c0.044-0.445,0.192,0.267,0.351-0.063c-0.427-1.043,0.062-1.647-0.223-2.506c0.378-0.332,0.364-0.922,0.317-1.541
						c-0.024-0.31-0.056-0.626-0.052-0.921c0.002-0.147,0.013-0.29,0.039-0.423c0.013-0.089,0.029-0.093,0.05-0.095
						c0.021-0.006,0.046-0.01,0.076-0.009l-0.178-0.022c-0.174-0.086,0.102-0.036,0.143-0.025c-0.138-0.062-0.16-0.015-0.256-0.082
						c-0.037-0.102-0.054-0.22-0.055-0.324c0.121-0.001,0.263,0.02,0.379,0.054l0.083,0.028c0.023,0.01,0.188,0.021,0.274,0.032
						l0.632,0.073c0.843,0.103,1.689,0.223,2.521,0.289c0.736,0.048,0.418-0.92,1.346-0.496l-0.264,0.33
						c1.487-0.396,3.04,0.014,4.495-0.322c-0.087,0.076-0.089,0.175-0.231,0.174c0.307,0.24,1.136,0.012,1.142-0.184
						c0.227,0.022,0.052,0.177,0.192,0.277c0.309,0.142,0.774-0.307,0.938-0.068c0.028,0.039-0.087,0.078-0.143,0.097
						c0.201-0.116,0.936,0.029,0.743-0.248c0.546,0.132,1.045-0.123,1.48,0.041c0.284-0.31,0.935,0.149,1.025-0.289
						c-0.039,0.453,0.958,0.365,1.303,0.152c-0.116,0.137,0.3,0.142,0.165,0.331c0.394-0.006,0.755-0.09,0.686-0.323
						c0.726,0.541,1.459-0.436,1.868,0.258c1.171-0.243,2.254-0.407,3.307-0.514c-0.038,0.451-1.164,0.045-1.119,0.519
						c0.999-0.186,1.575-0.573,2.566-0.464c0.256,0.062-0.146,0.195-0.232,0.272c0.998-0.186,1.93,0.041,2.818-0.205
						c-0.002,0.042-0.098,0.088-0.189,0.123c0.175-0.015,0.407,0.066,0.387-0.139l-0.17,0.055c-0.279-0.297,0.695-0.622,0.727-0.779
						c-0.297,0.588,0.877,0.148,0.405,0.891c0.115-0.039,0.26-0.136,0.233-0.273c0.171,0.04,0.225,0.12,0.052,0.276
						c0.627-0.112,0.404-0.33,0.973-0.325c-0.002,0.1-0.117,0.138-0.176,0.254c0.288-0.193,0.577-0.387,1.057-0.303
						c-0.029,0.06,0.027,0.138-0.116,0.136c0.824-0.03,1.405-0.515,2.309-0.328c-0.267,0.431,0.308,0.142,0.355,0.515l0.486-0.111
						l-0.195-0.181c0.426,0.006,0.803-0.266,1.168-0.144l-0.316,0.154l0.798-0.071l-0.452-0.142
						c0.431-0.192-0.046-0.472,0.521-0.368c-0.115,0.038,0.426,0.004,0.648,0.225l-0.001,0.001c0.208-0.119,0.432-0.244,0.738-0.151
						c0.056,0.119-0.052,0.413-0.016,0.492c0.056-0.156,0.225-0.178,0.4-0.202c0.179-0.024,0.362-0.051,0.597-0.217
						c-0.131,0.078-0.271,0.274-0.285,0.314c0,0,0.077-0.063,0.153-0.127c0.083-0.063,0.167-0.126,0.167-0.126
						c0.077,0.081,0.046,0.12-0.125,0.276c0.008,0.001,0.016,0.002,0.018,0.003c-0.015,0.332,0.471-0.585,0.272,0.085
						c-0.021-0.026-0.059,0.019-0.097-0.03c-0.053,0.28-0.013,0.469,0.025,0.702l0.027,0.175l0.017,0.247
						c0.006,0.164-0.001,0.327-0.032,0.49c-0.375,0.192-0.092-0.568-0.409-0.349c0.068,0.938,0.45,1.941,0.362,2.848l0.042-0.169
						c0.53,0.125-0.262,0.675-0.012,1.134c-0.039-0.112-0.294-0.147-0.235-0.117c-0.085,0.622,0.13,1.27,0.297,2.211l-0.136-0.117
						c-0.122,0.366-0.07,0.964-0.132,1.359c0.136,0.118,0.114,0.344,0.312,0.207c-0.776,1.219,0.416,2.326-0.23,3.407
						c-0.001-0.129-0.119-0.308-0.12-0.205l0.125,0.921c0.231-0.073,0.14-0.121,0.32-0.314c0.137,0.117,0.243,0.377,0.243,0.605
						c-0.153-0.414-0.371,0.004-0.5,0.183c0.071-0.03,0.149,0.031,0.221,0.016c-0.411,0.481,0.465,0.081,0.188,0.738l-0.122-0.035
						c0.062,0.246,0.223,0.473,0.188,0.738c-0.268,0.11-0.125-0.262-0.345-0.279c0.015,0.373,0.506,0.735,0.24,1.073
						c-0.074-0.158-0.076-0.386-0.149-0.544c-0.314,0.367-0.234,0.41-0.284,0.683l0.007-0.027l-0.142,0.631l0.085-0.161
						c0.697,0.466,0.127,0.949,0.584,1.577c-0.432-0.61-0.25-0.101-0.553-0.147c-0.084,0.16-0.178,0.404-0.263,0.335
						c0.244,0.296-0.192,0.495,0.165,0.915c-0.098,0.019-0.009,0.317-0.254,0.25c0.077,0.386,0.17-0.091,0.292-0.059
						c0.333,0.595-0.404,1.398,0.053,2.254c0.188,0.738,0.517,0.875,0.681,1.559c-0.156,0.231-0.355-0.189-0.355-0.189
						c-0.144,0.373-0.117,0.653-0.006,1.005c-0.085-0.071-0.157,0.002-0.267,0.109c0.026,0.282,0.355,0.188,0.211,0.56
						c-0.108-0.063-0.283-0.146-0.392-0.281c0.09,0.332,0.272,0.66,0.36,1.004c-0.17,0.091-0.258-0.208-0.369-0.329
						c0.076,0.387,0.154,1.001,0.423,1.121l0.096-0.248c0.013,0.141-0.231,0.072-0.28-0.032c-0.211-0.331,0.093-0.478,0.191-0.496
						l0.063,0.245c0.572-0.251-0.092-0.984-0.059-1.477l0.416,0.205l-0.345-0.505c0.108-0.107,0.341-0.181,0.403,0.062
						c0.206-0.353-0.148-0.313,0.082-0.617c0.036-0.033,0.056-0.018,0.072,0.013l-0.124-0.345c0.087,0.068,0.293-0.058,0.233,0.155
						c0.24-0.62-0.312-1,0.003-1.233l0.025,0.052c-0.141-0.86-0.306-0.083-0.664-0.729l0.753-0.434l-0.306-0.084
						c0.011-0.089,0.034-0.265,0.156-0.232c-0.209-0.33-0.133,0.056-0.33-0.135c0.278-0.427-0.13-1.178,0.356-1.274
						c-0.232-0.153-0.179,0.408-0.341-0.048c0.523-0.13-0.089-0.527,0.15-0.917c0.27,0.12,0.127,0.489,0.368,0.099
						c-0.457-0.236,0.1-0.76,0.013-1.089c-0.363-0.015-0.151-0.715-0.272-1.268c0.122,0.035,0.199-1.04,0.331-1.553l0.061,0.015
						c-0.367-0.099-0.298-0.629-0.374-1.015c0.22,0.015,0.307,0.084,0.405,0.293l-0.002-0.362c-0.118-0.086-0.18-0.199-0.222-0.435
						l0.274,0.091c-0.015-0.482-0.323-0.972-0.14-1.593c-0.256-0.035-0.713,0.494-0.884-0.163c0.139-0.024,0.375-0.048,0.432,0.124
						c-0.019-0.056-0.115-0.201-0.056-0.314l0.233,0.263c0.103-0.283-0.194-0.148-0.173-0.375c0.198,0.005,0.141-0.167,0.298-0.135
						c0.019,0.058-0.082,0.197-0.004,0.284c0.036-0.255,0.153-0.563,0.302-0.666c-0.112,0.022-0.266,0-0.292-0.187
						c-0.015-0.483,0.237-0.166,0.339-0.447c-0.137-0.117,0.005-0.425-0.29-0.433c0.001-0.142,0.139-0.167,0.219-0.222
						c-0.13-0.25-0.038-1.167-0.352-0.886l-0.021,0.064c-0.004-0.013-0.008-0.025-0.013-0.041v0.002v-0.002
						c-0.293-0.819,0.167-1.701,0.041-2.514l0.099,0.001c-0.113-0.485-0.066-1.08-0.279-1.426c0-0.143,0.18-0.338,0.298-0.277
						c-0.074-0.371-0.185-0.412-0.022-0.948c0.172,0.373,0.153-0.128,0.126,0.382c0.085-0.481,0.243-0.591-0.026-1.108
						c0.253,0.176,0.318-0.363,0.243-0.592l-0.181,0.337c-0.037-0.262-0.014-0.473,0.007-0.722c0,0.016,0.333,0.134,0.333,0.134
						c0.033-0.06,0.056-0.191,0.071-0.329c0.015-0.131,0.021-0.262,0.022-0.389c0-0.255-0.024-0.495-0.061-0.711
						c-0.073-0.438-0.191-0.766-0.244-1.098c-0.482,0.057-0.813,0.037-1.117-0.201c-0.508,0.232,0.731,0.164,0.192,0.436
						c-0.288-0.022-0.541-0.153-0.804-0.278c-0.257-0.125-0.511-0.245-0.631-0.245c-0.677-0.185-0.595,0.486-1.257,0.36
						c0.083,0.119,0.162,0.436-0.324,0.547c-0.454-0.044-0.558-0.498-0.271-0.593c0.109-0.01,0.161,0.028,0.157,0.068
						c0.146-0.043,0.339-0.094,0.159-0.223l-0.059,0.119c-0.225-0.121-0.85-0.108-0.703-0.303c-0.343,0.113-0.146,0.195,0.107,0.256
						c-0.582-0.172-0.91-0.005-1.509-0.121c0.095,0.065,0.183,0.205,0.088,0.204c-0.879-0.147-0.387,0.225-0.982,0.277
						c-0.338-0.181,0.121-0.432-0.479-0.28c-0.366-0.123-0.077-0.315,0.068-0.412c-0.546,0.229-1.021-0.15-1.333-0.192l0.288-0.096
						c-0.172,0.057-0.313,0.055-0.457,0.054l0.165,0.238c-0.169-0.042-0.312-0.042-0.309-0.141
						c-0.174,0.155,0.133,0.395-0.212,0.607c-0.225-0.121-0.686,0.129-0.764-0.186c0.708,0.107-0.078-0.316,0.521-0.367
						c-0.115,0.038-0.256,0.036-0.426-0.006c-0.025-0.035,0.024-0.065,0.07-0.083c-0.677-0.282-0.311,0.356-1.014,0.349
						c0.089-0.177-0.163-0.336-0.277-0.299c0.283,0.004,0.135,0.296-0.125,0.432c-0.45-0.138-0.489,0.103-0.725,0.087l0.27,0.065
						c-0.091,0.177-0.317,0.154-0.631,0.21c-0.026-0.138,0.285-0.095,0.173-0.156c-0.349,0.312-0.788-0.323-1.273-0.113
						c-0.226-0.121-0.022-0.333-0.22-0.415c-0.545,0.23-0.59-0.243-1.163-0.053c0.165,0.239,0.194,0.18-0.209,0.413l0.941-0.168
						L94.8,51.432c0.284,0.003,0.6-0.15,0.77-0.109c-0.288,0.195-0.258,0.135-0.122,0.333c-0.389-0.358-0.771,0.208-1.22-0.033
						l0.014-0.591c-0.675-0.263-1.2,0.303-2.077,0.155l0.282,0.103c-0.118,0.235-0.542,0.033-0.826,0.128
						c0.027-0.198-0.151-0.269-0.272-0.392c0.015,0.146-0.642-0.014-0.722,0.381l-0.391-0.26c-0.708-0.106-0.809,0.563-1.489,0.496
						c0.205-0.215-0.104-0.354,0.352-0.508c-0.228-0.002-0.432-0.038-0.435,0.099c-0.133-0.124-0.63,0.266-0.839,0.078
						c-0.096,0.087-0.127,0.293-0.382,0.277c-0.028-0.04,0.001-0.098,0.001-0.098c-0.001,0.098-0.4,0.133-0.177,0.351
						c-0.7-0.616-1.957,0.045-2.567-0.484c-0.496,0.066-1.094,0.129-1.544,0.144c0.029-0.059,0.001-0.099,0.086-0.078
						c-0.621-0.184-0.382,0.567-1.089,0.362c-0.361-0.319,0.375-0.172,0.15-0.293c-0.098-0.649-0.854,0.089-1.329-0.291l0.115-0.038
						c-0.364-0.221-0.887,0.246-1.481,0.2c0,0,0.029-0.058,0.003-0.098c-0.406,0.331-1.175,0.441-1.747,0.533
						c0.178-0.254,0.26-0.134,0.151-0.393c-0.256,0.037,0.075,0.415-0.437,0.487c-0.166-0.139-0.535-0.261-0.584-0.536l0.482-0.015
						c-0.247-0.356-0.625,0.012-0.878-0.05l0.032-0.156c-0.739,0.051-0.75,0.443-1.544,0.416l0.083,0.118
						c-0.435,0.389-0.364-0.219-0.797,0.071l-0.131-0.395c-0.287,0.095-1.004,0.382-1.518,0.456
						c0.291-0.293,0.892-0.442,1.264-0.616c-0.284-0.003-0.965,0.029-1.113,0.224c0.114-0.038,0.258-0.135,0.372-0.074
						c-0.373,0.31-0.744,0.463-1.462,0.456c-0.03-0.5-0.969-0.429-1.869-0.486c-0.03,0.424-0.096,0.793-0.302,0.921
						c0.071,0.459,0.099,0.863,0.102,1.271c0.001,0.236-0.004,0.337-0.013,0.465l-0.037,0.384c-0.06,0.517-0.149,1.055-0.127,1.638
						c0.595-0.414,0.017,0.34,0.628,0.269c0.039,0.271,0.029,0.375-0.011,0.399l-0.365,0.823c-0.178,0.195-0.135-0.258-0.272-0.233
						c-0.047,0.595-0.259,0.25-0.421,0.643c0.219-0.081,0.313,0.207,0.229,0.546l0.282-0.478c0.325,0.832-0.513,0.719-0.191,1.557
						l-0.192-0.265c0.113,0.43-0.004,1.586,0.487,2.008c-0.071,0.076-0.238,0.176-0.282-0.013c-0.074,1.027,0.523,2.287,0.22,3.086
						L69.5,64.247c0.043,0.192,0.281,0.334,0.13,0.574c-0.062-0.012-0.149-0.077-0.158,0.012c0.051,0.102,0.262,0.509,0.175,0.763
						l-0.168-0.217c-0.196,1.002,0.41,1.538,0.512,2.378c-0.44-0.002-0.583,0.787-0.654,1.18l-0.063-0.014
						c-0.054,1.167,0.365,1.982,0.538,3.063c-0.478,0.671-0.2,2.272-0.468,3.351c0.08-0.165,0.343,0.027,0.387,0.219
						c-0.089,0.253,0.305,0.699-0.098,0.659l0.007-0.09c-0.396,0.191-0.291,0.711-0.301,1.117l0.528,0.067
						c-0.176,0.243-0.256,0.521-0.284,0.812c-0.014,0.146-0.015,0.294-0.008,0.443l0.04,0.533c0.069,1.005,0.178,1.752-0.015,2.518
						c0.076,0.035,0.13,0.081,0.165,0.138c0.564-0.132,1.101-0.131,1.569-0.263l-0.133,0.283c1.428,0.072,1.507,0.108,2.44,0.041
						l-0.179,0.202c0.495,0.018,0.625-0.816,1.082-0.833l0.138,0.423c0.864-0.007,1.738,0.364,2.591-0.019
						c-0.014,0.062-0.04,0.184-0.179,0.201c0.407,0.011,1.573,0.286,1.425-0.294c0.01,0.378,0.891,0.037,1.358-0.129l-0.073,0.278
						c0.394-0.356,0.406-0.453,0.956-0.552c0.13,0.036,0.114,0.223-0.059,0.152c0.434,0.146,0.338-0.264,0.865-0.116l-0.196,0.178
						c0.447,0.021,0.411-0.074,0.657-0.282c0.281-0.112,0.848,0.07,0.913,0.322c0.061-0.153,0.305-0.359,0.568-0.286
						c0.036,0.095-0.061,0.154-0.108,0.183c0.747,0.189,1.11-0.324,1.625-0.05c0.01,0.092,0.044,0.138,0.086,0.166
						c-0.593-0.006-1.071-0.022-1.026-0.042c0,0.257,0.479,0.302,0.098,0.657c0.385-0.194,1.043-0.615,1.51-0.494
						c0.022,0.025,0.045,0.049,0.062,0.089l-0.048,0.029c0.108,0.025,0.205,0.001,0.295-0.042c0.149,0.042,0.244,0.073,0.387,0.077
						c0.055,0.212,0.549,0.115,0.789,0.125c-0.02-0.281,0.293-0.236,0-0.468c0.038,0.02-0.045,0.033-0.204,0.045
						c-0.036,0.008-0.078,0.013-0.102,0.029l0.017-0.025c-0.157,0.005-0.362,0.012-0.594,0.019c0.189-0.143,0.386-0.263,0.65-0.107
						c0.123-0.181,0.258-0.367,0.333-0.454c0.327,0.392,0.958,0.604,1.045,0.846c0.73-0.158,1.719-0.104,2.178-0.632
						c0.208-0.068,0.238,0.151,0.316,0.234c-0.12,0.053-0.262,0.045-0.327,0.121c0.415-0.136,1.229-0.053,1.329-0.422
						c0.523,0.167-0.294,0.34,0.424,0.279l-0.097,0.113c1.414,0.59,2.298-0.941,3.865-0.185c-0.108-0.046-0.163-0.068-0.185-0.13
						c1.787,0.334,3.682-0.313,5.445,0.216c0.501,0.106,0.556-0.129,0.861-0.308l0.109,0.302l0.523-0.348
						c0.741-0.255,1.284,0.741,2.223,0.258l-0.121-0.203c0.337,0.039,1.068-0.12,1.012,0.114c0.035-0.037,0.11-0.211,0.242-0.105
						l0.01,0.158l0.828-0.271c0.642,0.114-0.1,0.627,0.837,0.658c0.348-0.061,0.991-0.46,0.861-0.566
						c-0.141-0.008-0.359-0.098-0.37-0.257l0.318-0.082c0.058-0.466,0.303-0.942-0.479-1.268l-0.545,0.285l-0.176-0.226l0.458-0.014
						c-0.26-0.212-0.425-0.024-0.609,0.104c-0.044-0.12-0.12-0.204-0.229-0.249l-0.535,0.445c-0.065-0.183,0.24-0.362-0.119-0.462
						c-0.25,0.207,0.24,0.409-0.175,0.544c-0.261-0.212-0.185-0.384-0.49-0.204c-0.043-0.12,0.022-0.196,0.143-0.249
						c-0.272,0.144-0.721,0.061-0.861,0.309c-0.271-0.261-0.919,0.068-0.893-0.373c-0.085,0.105-0.479,0.346-0.73,0.364
						c0.457-0.527-0.936-0.031-0.815-0.597c-0.338,0.475-1.222,0.211-1.821,0.474c0.034-0.038,0.1-0.114,0.152-0.09
						c-0.337-0.04-0.435-0.183-0.652-0.272c-0.043,0.392-0.568,0.481-0.852,0.723c-0.413-0.378,0.251-0.46,0.121-0.823
						c0.021,0.317-0.718,0.317-0.577,0.582c-0.316-0.234-0.272-0.114-0.436-0.438c-0.055,0.49-0.294,0.083-0.556,0.384
						c-0.458-0.241-0.118-0.459-0.62-0.31C97.07,79.078,97.517,78.905,97.517,78.905z M85.566,79.752v-0.006
						c0.103-0.006,0.19-0.012,0.247-0.016C85.762,79.735,85.69,79.741,85.566,79.752z M84.562,79.756
						c0.123,0.011,0.274,0.013,0.436,0.011c0.035,0.097-0.003,0.197-0.104,0.192C84.949,79.895,84.712,79.838,84.562,79.756z
						 M86.687,81.704c-0.159,0.04-0.212-0.015-0.234-0.073c0.075-0.005,0.163-0.015,0.278-0.034l0.019-0.035
						C86.734,81.617,86.717,81.667,86.687,81.704z"/>
					<path fill="#FFFFFF" d="M86.972,81.335c0.023-0.006,0.036-0.018,0.065-0.021c-0.032-0.024-0.063-0.046-0.095-0.063
						l-0.056,0.088C86.916,81.338,86.945,81.337,86.972,81.335z"/>
					<path fill="#FFFFFF" d="M109.084,60.529l0.006-0.021c-0.011,0.018-0.022,0.034-0.04,0.044
						C109.064,60.539,109.073,60.539,109.084,60.529z"/>
					<polygon fill="#FFFFFF" points="71.996,79.214 71.925,79.285 71.933,79.281 72.002,79.227 71.992,79.223 					"/>
					<path fill="#FFFFFF" d="M108.12,66.061c-0.024,0.011-0.05,0.031-0.072,0.073C108.066,66.13,108.092,66.099,108.12,66.061z"/>
					<path fill="#FFFFFF" d="M108.057,68.45l-0.1,0.338C108.014,68.642,108.041,68.535,108.057,68.45z"/>
					<path fill="#FFFFFF" d="M107.917,70.287c0.049,0.023,0.086,0.03,0.12,0.036l0.002-0.003L107.917,70.287z"/>
					<path fill="#FFFFFF" d="M97.642,53.183c-0.024,0.001-0.049,0.005-0.071,0.013C97.405,53.25,97.518,53.228,97.642,53.183z"/>
					<path fill="#FFFFFF" d="M106.334,52.526c-0.092,0.051-0.184,0.101-0.28,0.133C106.209,52.68,106.33,52.686,106.334,52.526z"/>
					<polygon fill="#FFFFFF" points="87.936,53.521 87.938,53.516 87.877,53.516 					"/>
					<path fill="#FFFFFF" d="M105.651,52.654c0.154,0.056,0.284,0.044,0.404,0.005C105.928,52.64,105.779,52.611,105.651,52.654z"/>
					<path fill="#FFFFFF" d="M107.79,78.249l-0.012,0.088c0.019-0.001,0.034,0.004,0.045,0.01L107.79,78.249z"/>
					<path fill="#FFFFFF" d="M107.823,78.348l0.033,0.099C107.856,78.401,107.854,78.362,107.823,78.348z"/>
					<path fill="#FFFFFF" d="M107.927,78.653l-0.071-0.207C107.856,78.518,107.847,78.606,107.927,78.653z"/>
					<path fill="#FFFFFF" d="M107.92,75.817l-0.102-0.028C107.839,75.804,107.872,75.814,107.92,75.817z"/>
					<path fill="#FFFFFF" d="M107.89,75.078c-0.023,0.176-0.217,0.442-0.153,0.688l0.081,0.023
						C107.666,75.673,108.062,75.246,107.89,75.078z"/>
					<path fill="#FFFFFF" d="M109.15,71.994l-0.082,0.619c0.108-0.108,0.254-0.25,0.281,0.031
						C109.673,71.863,109.106,72.805,109.15,71.994z"/>
					<path fill="#FFFFFF" d="M109.308,70.073c0.051,0.333,0.158-0.004,0.219,0.014C109.428,69.876,109.403,69.825,109.308,70.073z"
						/>
					<path fill="#FFFFFF" d="M109.309,56.197l0.256,0.033C109.528,55.974,109.465,56.228,109.309,56.197z"/>
					<path fill="#FFFFFF" d="M107.987,53.619c0,0-0.159,0.145-0.159,0.175l0.234,0.119c0,0-0.019-0.092-0.038-0.184
						C108.005,53.674,107.987,53.619,107.987,53.619z"/>
					<polygon fill="#FFFFFF" points="109.595,50.961 109.822,50.924 109.015,51.017 					"/>
					<path fill="#FFFFFF" d="M85.236,51.052l0.078,0.315C85.487,51.31,85.523,50.956,85.236,51.052z"/>
					<path fill="#FFFFFF" d="M75.175,51.373c-0.109-0.158-0.393-0.259-0.567-0.104C74.834,51.29,75.06,51.413,75.175,51.373z"/>
					<polygon fill="#FFFFFF" points="69.47,77.814 69.364,77.612 69.452,77.993 					"/>
				</g>
			</g>
		</g>
	</g>
</g>
<g>
	<g>
		<g>
			<g>
				<g>
					<path fill="#FFFFFF" d="M64.425,114.877c0.086,0.073,0.281,0.032,0.243-0.169l-0.331-0.143L64.425,114.877z"/>
					<path fill="#FFFFFF" d="M65.038,113.523c-0.161-0.236-0.442-0.509-0.747-0.356c0.318,0.234,0.186,0.291,0.564,0.543
						c0.039,0.202-0.106,0.352-0.228,0.318c0.085,0.071-0.073,0.313,0.135,0.421c0.256-0.262,0.267-0.594,0.055-0.94
						C64.891,113.435,64.977,113.507,65.038,113.523z"/>
					<path fill="#FFFFFF" d="M65.554,93.857l-0.04,0.126C65.537,93.949,65.548,93.905,65.554,93.857z"/>
					<path fill="#FFFFFF" d="M63.271,82.845c0.093-0.008,0.132-0.041,0.136-0.071C63.322,82.796,63.251,82.816,63.271,82.845z"/>
					<path fill="#FFFFFF" d="M61.191,82.48c0.045,0.008,0.082,0.015,0.123,0.022C61.267,82.472,61.22,82.455,61.191,82.48z"/>
					<path fill="#FFFFFF" d="M65.554,93.857l0.104-0.326C65.55,93.508,65.578,93.698,65.554,93.857z"/>
					<path fill="#FFFFFF" d="M64.24,110.812c0.016,0.068,0.047,0.125,0.087,0.177l-0.035-0.166L64.24,110.812z"/>
					<path fill="#FFFFFF" d="M65.822,99.229l0,0.099c0.038,0.029,0.083,0.056,0.135,0.082L65.822,99.229z"/>
					<path fill="#FFFFFF" d="M65.873,103.351c0.012-0.093-0.269-0.126-0.392-0.162c0.116,0.053,0.171,0.122,0.193,0.204
						C65.728,103.395,65.792,103.382,65.873,103.351z"/>
					<path fill="#FFFFFF" d="M65.378,109.888l0.039,0.116C65.407,109.973,65.391,109.924,65.378,109.888z"/>
					<path fill="#FFFFFF" d="M65.883,96.278c0.042-0.007,0.078-0.021,0.101-0.038C65.948,96.24,65.915,96.255,65.883,96.278z"/>
					<path fill="#FFFFFF" d="M60.312,113.558c-0.003,0.02,0.001,0.033,0,0.05C60.336,113.579,60.343,113.559,60.312,113.558z"/>
					<path fill="#FFFFFF" d="M65.09,114.95l-0.066,0.015c-0.007,0.053-0.014,0.105-0.014,0.157L65.09,114.95z"/>
					<path fill="#FFFFFF" d="M57.384,82.12c0.008,0.002,0.01,0.003,0.017,0.005C57.501,82.093,57.444,82.099,57.384,82.12z"/>
					<path fill="#FFFFFF" d="M25.974,88.196c0.251-0.396,0.323,0.645,0.602,0.048C26.465,88.3,26.137,87.703,25.974,88.196z"/>
					<path fill="#FFFFFF" d="M64.276,110.705c-0.003-0.055-0.005-0.112-0.003-0.169C64.265,110.613,64.265,110.665,64.276,110.705z"
						/>
					<path fill="#FFFFFF" d="M26.575,88.245h0.002l0.026-0.062C26.592,88.208,26.585,88.223,26.575,88.245z"/>
					<path fill="#FFFFFF" d="M48.611,82.289c0.018,0.049,0.053,0.087,0.089,0.123C48.697,82.383,48.677,82.348,48.611,82.289z"/>
					<path fill="#FFFFFF" d="M55.146,82.689l-0.162-0.038C55.049,82.677,55.101,82.686,55.146,82.689z"/>
					<path fill="#FFFFFF" d="M45.218,82.686c-0.088-0.021-0.118-0.06-0.238-0.022c0.011,0.014,0.022,0.024,0.037,0.034
						C45.06,82.659,45.118,82.641,45.218,82.686z"/>
					<path fill="#FFFFFF" d="M41.686,82.688c0.019,0.021,0.043,0.038,0.065,0.057c0.035-0.005,0.076-0.01,0.112-0.015L41.686,82.688
						z"/>
					<path fill="#FFFFFF" d="M49.578,113.693c0.078,0.079,0.125,0.166,0.163,0.252C49.687,113.746,50.205,113.674,49.578,113.693z"
						/>
					<path fill="#FFFFFF" d="M64.397,110.81c-0.071-0.021-0.106-0.051-0.121-0.105l0.015,0.118
						C64.333,110.833,64.373,110.835,64.397,110.81z"/>
					<path fill="#FFFFFF" d="M45.074,84.903l-0.562-0.042C44.669,84.889,44.874,84.903,45.074,84.903z"/>
					<path fill="#FFFFFF" d="M28.281,111.979l0.034,0.129C28.321,112.059,28.313,112.013,28.281,111.979z"/>
					<path fill="#FFFFFF" d="M42.848,84.903c-0.101-0.099-0.207-0.157-0.316-0.194c-0.023,0.022-0.049,0.04-0.065,0.072
						L42.848,84.903z"/>
					<path fill="#FFFFFF" d="M49.742,113.948l-0.001-0.003L49.742,113.948z"/>
					<path fill="#FFFFFF" d="M53.438,113.281c-0.535-0.008-0.251,0.361-0.365,0.574c-0.638,0.104-0.295-0.272-0.513-0.461
						c-0.398,0.098-0.704,0.437-1.001,0.422c-0.022-0.061-0.08-0.083-0.012-0.159c-0.421,0.293-1.25,0.014-1.741,0.383
						c-0.037-0.033-0.055-0.064-0.064-0.092c0.079,0.185,0.091,0.373,0.075,0.507c-0.24,0.006-0.445,0.233-0.535-0.008
						c0.147,0.007,0.159-0.09,0.228-0.166l-0.251,0.105c-0.226-0.347,0.343-0.12,0.343-0.377c-0.49,0.113-1.061,0.4-1.436,0.302
						c-0.078-0.34,0.878-0.114,0.377-0.417l0.581,0.13c-0.444-0.536,0.353,0.038-0.055-0.536c-0.764-0.099-0.855,0.173-1.617,0.074
						c-0.171,0.189,0.057,0.279-0.115,0.468c-1.083,0.339-0.853-0.854-1.649-0.402c-0.207,0.227-0.286,0.656-0.854,0.429
						l0.193-0.384c-0.74-0.038-0.422,0.552-1.197,0.293c0.138-0.151,0.582-0.127,0.47-0.173c-0.502-0.303-0.355,0.218-0.741,0.218
						l-0.08-0.34c-0.788,0.053-1.656,0.299-2.528,0.361c0.048-0.101,0.198-0.208-0.006-0.312c-1.101,0.17-2.349-0.042-3.41-0.243
						l-0.406,0.293c-0.094-0.003-0.175-0.132-0.073-0.189c-0.414-0.111-0.021,0.186-0.22,0.302
						c-0.235,0.021-0.311-0.169-0.162-0.257c-0.73,0.249-2.079,0.536-2.848,0.222l0.15-0.087c-0.599-0.119-0.676,0.602-1.231,0.328
						l0.106-0.052c-1.299-0.127-2.736,0.142-3.728-0.301c-0.047,0.105-0.151,0.146-0.282,0.158
						c-0.157,0.011-0.144-0.007-0.223-0.021c-0.112-0.026-0.195-0.032-0.408,0.263c-0.094-0.13-0.056-0.223-0.031-0.304
						c0.101-0.16,0.181-0.304,0.29-0.458c0.027-0.067-0.368,0.071-0.43-0.217l0.309-0.009l-0.324-0.468l0.369-0.25l-0.079-0.324
						c-0.018,0.129-0.138,0.274-0.227,0.254c-0.14-0.505,0.215-1.232,0.373-1.245l-0.261-1.196c0.124,0.026,0.167,0.227,0.246,0.385
						c-0.314-0.639,0.325-0.116,0.037-0.701c-0.07,0.078-0.184-0.042-0.246-0.056c0.187-0.292,0.188-0.956,0.109-1.447l0.213,0.095
						c0.054-0.887-0.102-1.871-0.098-2.866c-0.099,0.357-0.467,0.275-0.503-0.017l0.326-0.117c-0.202-0.188-0.124,0.305-0.37-0.082
						c0.038-0.372,0.37-0.25,0.476-0.037l-0.113-0.452c0.097-0.027,0.148,0.08,0.272,0.107c-0.202-0.186,0.327-0.781-0.024-1.048
						l0.097-0.025c0.002-0.996-0.109-1.447-0.126-2.258c-0.281-0.016-0.219-0.333-0.446-0.575c0.089-0.596,0.311-1.257,0.287-1.975
						c-0.14-0.505-0.238-0.147-0.405-0.375c0.256-0.037,0.232-0.754,0.416-0.382c-0.042-0.861-0.051-1.101-0.259-2.19
						c-0.105,0.118-0.15,0.251-0.238,0.183c-0.042-0.198,0.107-0.45,0.23-0.422l0.026,0.052c-0.384-1.223,0.747-2.823,0.213-3.797
						l0.026,0.054l-0.278-1.01c0.044-0.465,0.192,0.278,0.351-0.065c-0.427-1.09,0.062-1.722-0.223-2.619
						c0.377-0.347,0.364-0.963,0.317-1.61c-0.024-0.323-0.056-0.654-0.052-0.963c0.004-0.267,0.044-0.72,0.165-0.618l-0.178-0.015
						c-0.174-0.083,0.102-0.042,0.143-0.032c-0.138-0.058-0.16-0.008-0.256-0.074c-0.037-0.105-0.054-0.228-0.055-0.336
						c0.126-0.001,0.273,0.02,0.394,0.054c0.036,0.008,0.047,0.018,0.098,0.028l0.33,0.032l0.661,0.073
						c0.882,0.103,1.765,0.223,2.635,0.289c0.77,0.048,0.437-0.92,1.407-0.496l-0.275,0.33c1.553-0.396,3.176,0.014,4.697-0.322
						c-0.091,0.076-0.093,0.175-0.242,0.174c0.321,0.24,1.188,0.012,1.193-0.184c0.237,0.022,0.055,0.177,0.201,0.277
						c0.322,0.142,0.809-0.307,0.98-0.068c0.029,0.039-0.091,0.078-0.149,0.097c0.21-0.116,0.978,0.029,0.777-0.248
						c0.571,0.132,1.092-0.123,1.547,0.041c0.297-0.31,0.977,0.149,1.071-0.289c-0.041,0.453,1.001,0.365,1.362,0.152
						c-0.121,0.137,0.313,0.142,0.172,0.331c0.412-0.006,0.789-0.09,0.717-0.323c0.759,0.541,1.525-0.436,1.952,0.258
						c1.224-0.243,2.355-0.407,3.456-0.514c-0.04,0.451-1.217,0.045-1.169,0.519c1.044-0.186,1.646-0.573,2.681-0.464
						c0.269,0.062-0.152,0.195-0.243,0.272c1.043-0.186,2.017,0.041,2.945-0.205c-0.002,0.042-0.103,0.088-0.197,0.123
						c0.183-0.015,0.425,0.066,0.405-0.139l-0.178,0.055c-0.292-0.297,0.726-0.622,0.759-0.779
						c-0.311,0.588,0.917,0.148,0.424,0.891c0.12-0.039,0.271-0.136,0.244-0.273c0.179,0.04,0.235,0.12,0.054,0.276
						c0.655-0.112,0.422-0.33,1.016-0.325c-0.002,0.1-0.122,0.138-0.184,0.254c0.3-0.193,0.603-0.387,1.104-0.303
						c-0.03,0.06,0.028,0.138-0.122,0.136c0.861-0.03,1.468-0.515,2.414-0.328c-0.279,0.431,0.321,0.142,0.372,0.515l0.508-0.111
						l-0.204-0.181c0.445,0.006,0.838-0.266,1.221-0.144l-0.331,0.154c-0.021,0,0.885-0.071,0.772-0.071
						c0.06,0-0.399-0.142-0.41-0.142c0.438-0.192-0.022-0.472,0.518-0.368c-0.119,0.038,0.417,0.004,0.471,0.225l-0.001,0.001
						c0.21-0.113,0.504-0.231,0.702-0.165c-0.004,0.016-0.008,0.034-0.013,0.053c-0.119,0.176-0.413,0.354-0.492,0.471
						c0.156-0.096,0.178,0.059,0.202,0.218c0.024,0.163,0.051,0.327,0.217,0.409c-0.078-0.06-0.274-0.013-0.314,0.012
						c0-0.008,0.253,0.076,0.253,0.084c-0.081,0.148-0.12,0.206-0.276,0.166c-0.046,0.62,0.474-0.197,0.27,0.539
						c-0.021-0.058-0.059-0.03-0.097-0.15c-0.106,0.739,0.161,1.428,0.036,2.108c-0.375,0.2-0.092-0.594-0.409-0.364
						c0.068,0.979,0.45,2.028,0.362,2.977l0.042-0.177c0.53,0.131-0.262,0.706-0.012,1.185c-0.039-0.117-0.294-0.154-0.235-0.122
						c-0.085,0.649,0.13,1.327,0.297,2.311l-0.136-0.122c-0.122,0.383-0.07,1.008-0.132,1.421c0.136,0.123,0.114,0.359,0.312,0.215
						c-0.776,1.274,0.416,2.431-0.23,3.561c-0.001-0.135-0.119-0.322-0.12-0.214l0.125,0.963c0.231-0.076,0.14-0.126,0.32-0.329
						c0.137,0.122,0.243,0.394,0.243,0.632c-0.153-0.433-0.371,0.004-0.5,0.191c0.071-0.031,0.149,0.033,0.221,0.017
						c-0.411,0.503,0.465,0.084,0.188,0.771l-0.122-0.037c0.062,0.257,0.223,0.494,0.188,0.771
						c-0.268,0.115-0.125-0.273-0.345-0.291c0.015,0.389,0.506,0.768,0.24,1.121c-0.074-0.166-0.076-0.403-0.149-0.569
						c-0.314,0.384-0.234,0.429-0.284,0.713l0.007-0.028l-0.142,0.659l0.085-0.168c0.697,0.487,0.127,0.992,0.584,1.648
						c-0.432-0.638-0.25-0.105-0.553-0.154c-0.084,0.167-0.178,0.422-0.263,0.35c0.244,0.311-0.192,0.518,0.165,0.956
						c-0.098,0.02-0.009,0.332-0.254,0.262c0.077,0.403,0.17-0.095,0.292-0.062c0.333,0.622-0.404,1.461,0.053,2.355
						c0.188,0.771,0.517,0.914,0.681,1.629c-0.156,0.241-0.355-0.198-0.355-0.198c-0.144,0.39-0.117,0.683-0.006,1.05
						c-0.085-0.074-0.157,0.002-0.267,0.114c0.026,0.294,0.355,0.197,0.211,0.585c-0.108-0.067-0.283-0.152-0.392-0.294
						c0.09,0.347,0.272,0.69,0.36,1.05c-0.17,0.095-0.258-0.217-0.369-0.344c0.076,0.404,0.154,1.047,0.423,1.171l0.096-0.259
						c0.013,0.147-0.231,0.076-0.28-0.033c-0.211-0.346,0.093-0.5,0.191-0.519l0.063,0.256c0.572-0.263-0.092-1.028-0.059-1.543
						l0.416,0.214l-0.345-0.528c0.108-0.112,0.341-0.189,0.403,0.065c0.206-0.37-0.148-0.327,0.082-0.645
						c0.036-0.035,0.056-0.019,0.072,0.013l-0.124-0.361c0.087,0.071,0.293-0.06,0.233,0.162c0.24-0.648-0.312-1.045,0.003-1.289
						l0.025,0.054c-0.141-0.899-0.306-0.087-0.664-0.761l0.753-0.454l-0.306-0.088c0.011-0.093,0.034-0.276,0.156-0.243
						c-0.209-0.345-0.133,0.059-0.33-0.141c0.278-0.446-0.13-1.231,0.356-1.332c-0.232-0.16-0.179,0.427-0.341-0.05
						c0.523-0.136-0.089-0.551,0.15-0.958c0.27,0.125,0.127,0.512,0.368,0.104c-0.457-0.246,0.1-0.794,0.013-1.138
						c-0.363-0.017-0.151-0.748-0.272-1.325c0.122,0.037,0.199-1.086,0.331-1.623l0.061,0.016c-0.367-0.104-0.298-0.658-0.374-1.061
						c0.22,0.016,0.307,0.088,0.405,0.307l-0.002-0.379c-0.118-0.09-0.18-0.208-0.222-0.454l0.274,0.095
						c-0.015-0.504-0.323-1.016-0.14-1.666c-0.256-0.036-0.713,0.517-0.884-0.17c0.139-0.025,0.375-0.051,0.432,0.129
						c-0.019-0.059-0.115-0.21-0.056-0.329l0.233,0.274c0.103-0.296-0.194-0.155-0.173-0.391c0.198,0.005,0.141-0.175,0.298-0.141
						c0.019,0.061-0.082,0.207-0.004,0.297c0.036-0.267,0.153-0.589,0.302-0.695c-0.112,0.023-0.266,0-0.292-0.195
						c-0.015-0.504,0.237-0.172,0.339-0.467c-0.137-0.122,0.005-0.444-0.29-0.453c0.001-0.147,0.139-0.175,0.219-0.232
						c-0.13-0.261-0.038-1.22-0.352-0.925l-0.021,0.067c-0.004-0.013-0.008-0.027-0.013-0.043v0.002V94.03
						c-0.293-0.855,0.167-1.778,0.041-2.627l0.099,0.001c-0.113-0.507-0.066-1.128-0.279-1.49c0-0.15,0.18-0.354,0.298-0.29
						c-0.074-0.388-0.185-0.431-0.022-0.991c0.172,0.39,0.153-0.134,0.126,0.399c0.085-0.503,0.243-0.618-0.026-1.158
						c0.253,0.184,0.318-0.379,0.243-0.619l-0.181,0.353c-0.037-0.269-0.014-0.504,0.007-0.744l0.333,0.129
						c0.203-0.515,0.03-0.98-0.108-1.414c-0.138-0.379-0.242-0.941,0.097-1.702c-0.232-0.301-0.164,0.926-0.436,0.632
						c0.022-0.323,0.153-0.716,0.278-1.114c0.125-0.393,0.245-0.776,0.245-0.902c0.006-0.046,0.013-0.089,0.017-0.12
						c-0.928-0.121-1.3,0.498-2.159,0.376c0.112,0.119,0.06,0.436-0.512,0.547c-0.487-0.044-0.586-0.498-0.29-0.593
						c0.114-0.01,0.168,0.028,0.164,0.068c0.157-0.043,0.519-0.094,0.226-0.223l-0.1,0.119c-0.276-0.121-0.899-0.108-0.755-0.303
						c-0.358,0.113-0.153,0.195,0.112,0.256c-0.608-0.172-0.951-0.005-1.577-0.121c0.1,0.065,0.191,0.205,0.092,0.204
						c-0.918-0.147-0.405,0.225-1.027,0.277c-0.354-0.181,0.126-0.432-0.5-0.28c-0.382-0.123-0.081-0.315,0.071-0.412
						c-0.571,0.229-1.066-0.15-1.393-0.192l0.301-0.096c-0.18,0.057-0.327,0.055-0.477,0.054l0.171,0.238
						c-0.176-0.042-0.326-0.042-0.322-0.141c-0.182,0.155,0.139,0.395-0.222,0.607c-0.235-0.121-0.717,0.129-0.798-0.186
						c0.74,0.107-0.082-0.316,0.545-0.367c-0.121,0.038-0.268,0.036-0.445-0.006c-0.026-0.035,0.025-0.065,0.073-0.083
						c-0.708-0.282-0.326,0.356-1.06,0.349c0.093-0.177-0.17-0.336-0.29-0.299c0.295,0.004,0.141,0.296-0.13,0.432
						c-0.471-0.138-0.511,0.103-0.758,0.087l0.281,0.065c-0.095,0.177-0.331,0.154-0.659,0.21c-0.028-0.138,0.298-0.095,0.181-0.156
						c-0.364,0.312-0.823-0.323-1.331-0.113c-0.235-0.121-0.023-0.333-0.229-0.415c-0.569,0.23-0.617-0.243-1.215-0.053
						c0.172,0.239,0.202,0.18-0.219,0.413l0.983-0.168l-0.631,0.347c0.297,0.003,0.626-0.15,0.805-0.109
						c-0.301,0.195-0.27,0.135-0.128,0.333c-0.406-0.358-0.806,0.208-1.275-0.033l0.014-0.591c-0.706-0.263-1.254,0.303-2.171,0.155
						l0.294,0.103c-0.123,0.235-0.566,0.033-0.863,0.128c0.028-0.198-0.158-0.269-0.285-0.392c0.016,0.146-0.671-0.014-0.754,0.381
						l-0.409-0.26c-0.74-0.106-0.845,0.563-1.557,0.496c0.214-0.215-0.109-0.354,0.368-0.508c-0.237-0.002-0.451-0.038-0.455,0.099
						c-0.139-0.124-0.659,0.266-0.877,0.078c-0.1,0.087-0.133,0.293-0.399,0.277c-0.029-0.04,0.001-0.098,0.001-0.098
						c-0.001,0.098-0.417,0.133-0.185,0.351c-0.731-0.616-2.045,0.045-2.682-0.484c-0.519,0.066-1.144,0.129-1.614,0.144
						c0.03-0.059,0.001-0.099,0.09-0.078c-0.649-0.184-0.399,0.567-1.138,0.362c-0.377-0.319,0.392-0.172,0.157-0.293
						c-0.103-0.649-0.892,0.089-1.389-0.291l0.12-0.038c-0.38-0.221-0.927,0.246-1.548,0.2c0,0,0.03-0.058,0.003-0.098
						c-0.424,0.331-1.229,0.441-1.826,0.533c0.186-0.254,0.271-0.134,0.158-0.393c-0.268,0.037,0.079,0.415-0.456,0.487
						c-0.174-0.139-0.56-0.261-0.611-0.536l0.504-0.015c-0.258-0.356-0.653,0.012-0.918-0.05l0.034-0.156
						c-0.773,0.051-0.783,0.443-1.614,0.416l0.086,0.118c-0.454,0.389-0.381-0.219-0.833,0.071l-0.137-0.395
						c-0.299,0.095-1.049,0.382-1.586,0.456c0.304-0.293,0.933-0.442,1.321-0.616c-0.296-0.003-1.008,0.029-1.163,0.224
						c0.12-0.038,0.27-0.135,0.389-0.074c-0.182,0.155-0.393,0.271-0.632,0.347c-0.12,0.038-0.247,0.066-0.38,0.084
						c-0.155,0.018-0.326,0.026-0.501,0.025c-0.009-0.5-0.993-0.429-1.931-0.486c-0.03,0.444-0.096,0.833-0.302,0.976
						c0.071,0.477,0.099,0.897,0.102,1.324c0.002,0.353-0.02,0.552-0.05,0.843c-0.06,0.541-0.149,1.103-0.127,1.712
						c0.595-0.433,0.017,0.355,0.628,0.281c0.039,0.284,0.029,0.393-0.011,0.418l-0.365,0.86c-0.178,0.204-0.135-0.27-0.272-0.244
						c-0.047,0.622-0.259,0.261-0.421,0.672c0.219-0.084,0.313,0.216,0.229,0.57l0.282-0.499c0.325,0.869-0.513,0.751-0.191,1.626
						l-0.192-0.277c0.113,0.449-0.004,1.658,0.487,2.098c-0.071,0.08-0.238,0.185-0.282-0.013c-0.074,1.074,0.523,2.39,0.22,3.225
						l-0.149-0.081c0.043,0.2,0.281,0.349,0.13,0.6c-0.062-0.013-0.149-0.081-0.158,0.012c0.051,0.106,0.262,0.532,0.175,0.797
						l-0.168-0.227c-0.196,1.047,0.41,1.607,0.512,2.486c-0.44-0.002-0.583,0.822-0.654,1.233l-0.063-0.014
						c-0.054,1.22,0.365,2.072,0.538,3.201c-0.478,0.701-0.2,2.375-0.468,3.502c0.08-0.172,0.343,0.028,0.387,0.229
						c-0.089,0.264,0.305,0.731-0.098,0.689l0.007-0.094c-0.396,0.199-0.291,0.743-0.301,1.167l0.528,0.07
						c-0.384,0.555-0.313,1.282-0.233,1.946c0.041,0.332,0.083,0.648,0.073,0.919c-0.005,0.135-0.023,0.26-0.062,0.369
						c-0.039,0.113-0.098,0.18-0.184,0.347c0.132,0.459,0.131,1.021,0.263,1.38l-0.283,0.141c-0.024,0.499-0.043,0.908-0.061,1.275
						c0.699,0.024,1.389,0.023,2.465-0.02l-0.396,0.202c1.126,0.018,1.036-0.816,1.557-0.833l0.144,0.423
						c0.903-0.007,1.816,0.364,2.708-0.019c-0.015,0.062-0.041,0.184-0.187,0.201c0.425,0.011,1.644,0.286,1.489-0.294
						c0.01,0.378,0.931,0.037,1.419-0.129l-0.076,0.278c0.412-0.356,0.425-0.453,0.999-0.552c0.136,0.036,0.12,0.223-0.062,0.152
						c0.454,0.146,0.354-0.264,0.904-0.116l-0.205,0.178c0.467,0.021,0.43-0.074,0.687-0.282c0.293-0.112,0.886,0.07,0.955,0.322
						c0.063-0.153,0.318-0.359,0.594-0.286c0.037,0.095-0.063,0.154-0.114,0.183c0.781,0.189,1.161-0.324,1.698-0.05
						c0.011,0.092,0.046,0.138,0.091,0.166c-0.62-0.006-1.12-0.022-1.073-0.042c0,0.257,0.5,0.302,0.102,0.657
						c0.402-0.194,1.09-0.615,1.578-0.494c0.023,0.025,0.047,0.049,0.064,0.089l-0.05,0.029c0.113,0.025,0.213,0.001,0.309-0.042
						c0.156,0.042,0.255,0.073,0.404,0.077c0.058,0.212,0.575,0.115,0.824,0.125c-0.021-0.281,0.306-0.236,0-0.468
						c0.04,0.02-0.047,0.033-0.213,0.045c-0.038,0.008-0.082,0.013-0.106,0.029l0.017-0.025c-0.164,0.005-0.378,0.012-0.621,0.019
						c0.198-0.143,0.404-0.263,0.68-0.107c0.128-0.181,0.269-0.367,0.349-0.454c0.342,0.392,1,0.604,1.092,0.846
						c0.763-0.158,1.797-0.104,2.276-0.632c0.217-0.068,0.249,0.151,0.33,0.234c-0.125,0.053-0.274,0.045-0.342,0.121
						c0.434-0.136,1.285-0.053,1.388-0.422c0.546,0.167-0.307,0.34,0.444,0.279l-0.102,0.113c1.478,0.59,2.402-0.941,4.04-0.185
						c-0.114-0.046-0.17-0.068-0.193-0.13c1.867,0.334,3.848-0.313,5.69,0.216c0.524,0.106,0.581-0.129,0.9-0.308l0.114,0.302
						l0.546-0.348c0.775-0.255,1.342,0.741,2.323,0.258l-0.126-0.203c0.353,0.039,1.116-0.12,1.057,0.114
						c0.036-0.037,0.116-0.211,0.253-0.105l0.011,0.158l0.866-0.271c0.671,0.114-0.105,0.627,0.874,0.658
						c0.364-0.061,1.036-0.46,0.9-0.566c-0.147-0.008-0.375-0.098-0.387-0.257l0.333-0.082c0.061-0.466,0.316-0.942-0.5-1.268
						l-0.57,0.285l-0.183-0.226l0.479-0.014c-0.271-0.212-0.444-0.024-0.637,0.104c-0.045-0.12-0.125-0.204-0.238-0.249
						l-0.559,0.445c-0.068-0.183,0.25-0.362-0.125-0.462c-0.262,0.207,0.251,0.409-0.183,0.544
						c-0.272-0.212-0.193-0.384-0.512-0.204c-0.045-0.12,0.022-0.196,0.149-0.249c-0.285,0.144-0.753,0.061-0.9,0.309
						c-0.284-0.261-0.96,0.068-0.933-0.373c-0.089,0.105-0.501,0.346-0.763,0.364c0.478-0.527-0.979-0.031-0.852-0.597
						c-0.354,0.475-1.277,0.211-1.903,0.474c0.035-0.038,0.104-0.114,0.159-0.09c-0.353-0.04-0.455-0.183-0.682-0.272
						c-0.045,0.392-0.594,0.481-0.89,0.723c-0.432-0.378,0.262-0.46,0.127-0.823c0.021,0.317-0.751,0.317-0.604,0.582
						c-0.33-0.234-0.285-0.114-0.455-0.438c-0.058,0.49-0.308,0.083-0.582,0.384c-0.478-0.241-0.123-0.459-0.648-0.31
						C52.971,113.454,53.438,113.281,53.438,113.281z M40.95,114.128v-0.006c0.107-0.006,0.199-0.012,0.258-0.016
						C41.154,114.111,41.079,114.117,40.95,114.128z M39.9,114.132c0.128,0.011,0.287,0.013,0.455,0.011
						c0.037,0.097-0.003,0.197-0.108,0.192C40.304,114.271,40.057,114.214,39.9,114.132z M42.12,116.08
						c-0.167,0.04-0.222-0.015-0.245-0.073c0.078-0.005,0.17-0.015,0.291-0.034l0.02-0.035
						C42.169,115.993,42.151,116.043,42.12,116.08z"/>
					<path fill="#FFFFFF" d="M42.418,115.711c0.024-0.006,0.037-0.018,0.069-0.021c-0.034-0.024-0.066-0.046-0.099-0.063
						l-0.059,0.088C42.359,115.714,42.391,115.713,42.418,115.711z"/>
					<path fill="#FFFFFF" d="M65.508,94.006l0.006-0.022c-0.011,0.019-0.022,0.036-0.04,0.046
						C65.488,94.015,65.497,94.015,65.508,94.006z"/>
					<polygon fill="#FFFFFF" points="28.419,113.148 28.349,113.149 28.411,113.241 					"/>
					<path fill="#FFFFFF" d="M64.543,99.786c-0.024,0.011-0.05,0.033-0.072,0.076C64.49,99.858,64.516,99.826,64.543,99.786z"/>
					<path fill="#FFFFFF" d="M64.48,102.283l-0.1,0.354C64.438,102.483,64.464,102.372,64.48,102.283z"/>
					<path fill="#FFFFFF" d="M64.341,104.203c0.049,0.024,0.086,0.031,0.12,0.038l0.002-0.004L64.341,104.203z"/>
					<path fill="#FFFFFF" d="M55.279,84.57c-0.026,0.001-0.051,0.005-0.074,0.013C55.031,84.637,55.149,84.615,55.279,84.57z"/>
					<path fill="#FFFFFF" d="M64.13,83.913c-0.1,0.051-0.187,0.101-0.265,0.133C63.963,84.067,64.036,84.073,64.13,83.913z"/>
					<polygon fill="#FFFFFF" points="45.136,84.908 45.137,84.903 45.074,84.903 					"/>
					<path fill="#FFFFFF" d="M63.588,84.041c0.099,0.056,0.179,0.044,0.277,0.005C63.787,84.027,63.683,83.998,63.588,84.041z"/>
					<path fill="#FFFFFF" d="M64.214,112.523l-0.012,0.092c0.019-0.001,0.034,0.004,0.045,0.011L64.214,112.523z"/>
					<path fill="#FFFFFF" d="M64.247,112.627l0.033,0.103C64.28,112.683,64.278,112.642,64.247,112.627z"/>
					<path fill="#FFFFFF" d="M64.351,112.946l-0.071-0.216C64.28,112.804,64.271,112.897,64.351,112.946z"/>
					<path fill="#FFFFFF" d="M64.344,109.982l-0.102-0.029C64.263,109.969,64.295,109.979,64.344,109.982z"/>
					<path fill="#FFFFFF" d="M64.314,109.209c-0.023,0.184-0.217,0.462-0.153,0.719l0.081,0.024
						C64.09,109.832,64.486,109.385,64.314,109.209z"/>
					<path fill="#FFFFFF" d="M65.574,105.986l-0.082,0.647c0.108-0.113,0.254-0.262,0.281,0.032
						C66.097,105.85,65.53,106.834,65.574,105.986z"/>
					<path fill="#FFFFFF" d="M65.731,103.979c0.051,0.348,0.158-0.004,0.219,0.014C65.852,103.773,65.827,103.72,65.731,103.979z"/>
					<path fill="#FFFFFF" d="M65.732,89.478l0.256,0.035C65.952,89.245,65.889,89.511,65.732,89.478z"/>
					<polygon fill="#FFFFFF" points="64.411,86.706 64.251,86.967 64.486,87.091 					"/>
					<path fill="#FFFFFF" d="M66.232,85.041c0,0.022,0.037,0.153,0.037,0.145c0,0.093-0.093-0.72-0.093-0.695L66.232,85.041z"/>
					<path fill="#FFFFFF" d="M42.314,82.439l0.081,0.315C42.576,82.697,42.614,82.343,42.314,82.439z"/>
					<path fill="#FFFFFF" d="M31.8,82.76c-0.115-0.158-0.41-0.259-0.593-0.104C31.444,82.677,31.679,82.8,31.8,82.76z"/>
					<polygon fill="#FFFFFF" points="25.893,110.359 25.788,110.148 25.875,110.546 					"/>
				</g>
			</g>
		</g>
	</g>
</g>
<g>
	<g>
		<g>
			<g>
				<g>
					<path fill="#FFFFFF" d="M108.001,114.877c0.086,0.073,0.281,0.032,0.243-0.169l-0.331-0.143L108.001,114.877z"/>
					<path fill="#FFFFFF" d="M108.614,113.523c-0.161-0.236-0.442-0.509-0.747-0.356c0.318,0.234,0.186,0.291,0.564,0.543
						c0.039,0.202-0.106,0.352-0.228,0.318c0.085,0.071-0.073,0.313,0.135,0.421c0.256-0.262,0.267-0.594,0.055-0.94
						C108.467,113.435,108.553,113.507,108.614,113.523z"/>
					<path fill="#FFFFFF" d="M109.13,93.857l-0.04,0.127C109.113,93.949,109.125,93.906,109.13,93.857z"/>
					<path fill="#FFFFFF" d="M106.848,82.845c0.093-0.008,0.131-0.041,0.136-0.071C106.898,82.796,106.828,82.816,106.848,82.845z"
						/>
					<path fill="#FFFFFF" d="M104.768,82.48c0.045,0.008,0.083,0.015,0.123,0.022C104.844,82.472,104.796,82.455,104.768,82.48z"/>
					<path fill="#FFFFFF" d="M109.13,93.857l0.104-0.326C109.126,93.509,109.154,93.698,109.13,93.857z"/>
					<path fill="#FFFFFF" d="M107.816,110.812c0.016,0.068,0.047,0.125,0.087,0.177l-0.035-0.166L107.816,110.812z"/>
					<path fill="#FFFFFF" d="M109.398,99.229l0,0.099c0.038,0.029,0.083,0.056,0.135,0.082L109.398,99.229z"/>
					<path fill="#FFFFFF" d="M109.449,103.351c0.012-0.093-0.269-0.125-0.392-0.162c0.116,0.053,0.171,0.122,0.193,0.204
						C109.304,103.395,109.368,103.382,109.449,103.351z"/>
					<path fill="#FFFFFF" d="M108.955,109.888l0.039,0.116C108.983,109.973,108.967,109.924,108.955,109.888z"/>
					<path fill="#FFFFFF" d="M109.459,96.278c0.042-0.007,0.078-0.021,0.101-0.038C109.524,96.24,109.491,96.255,109.459,96.278z"/>
					<path fill="#FFFFFF" d="M103.888,113.558c-0.003,0.02,0.001,0.033,0,0.05C103.912,113.579,103.919,113.559,103.888,113.558z"/>
					<path fill="#FFFFFF" d="M108.667,114.95l-0.066,0.015c-0.007,0.053-0.014,0.105-0.014,0.157L108.667,114.95z"/>
					<path fill="#FFFFFF" d="M100.96,82.12c0.007,0.002,0.01,0.003,0.017,0.005C101.077,82.093,101.021,82.099,100.96,82.12z"/>
					<path fill="#FFFFFF" d="M69.55,88.196c0.251-0.396,0.323,0.645,0.602,0.048C70.042,88.3,69.714,87.703,69.55,88.196z"/>
					<path fill="#FFFFFF" d="M107.853,110.705c-0.003-0.056-0.005-0.112-0.003-0.169
						C107.841,110.613,107.841,110.665,107.853,110.705z"/>
					<path fill="#FFFFFF" d="M70.152,88.245h0.002l0.026-0.062C70.169,88.208,70.162,88.223,70.152,88.245z"/>
					<path fill="#FFFFFF" d="M92.188,82.289c0.018,0.049,0.053,0.087,0.089,0.123C92.274,82.383,92.254,82.348,92.188,82.289z"/>
					<path fill="#FFFFFF" d="M98.723,82.689l-0.162-0.038C98.625,82.677,98.677,82.686,98.723,82.689z"/>
					<path fill="#FFFFFF" d="M88.794,82.686c-0.088-0.021-0.118-0.06-0.238-0.022c0.011,0.014,0.022,0.024,0.037,0.034
						C88.636,82.659,88.694,82.641,88.794,82.686z"/>
					<path fill="#FFFFFF" d="M85.262,82.688c0.019,0.021,0.043,0.038,0.065,0.057c0.035-0.005,0.076-0.01,0.112-0.015L85.262,82.688
						z"/>
					<path fill="#FFFFFF" d="M93.154,113.693c0.078,0.079,0.126,0.166,0.164,0.252C93.263,113.746,93.782,113.674,93.154,113.693z"
						/>
					<path fill="#FFFFFF" d="M107.974,110.81c-0.071-0.021-0.106-0.051-0.121-0.104l0.015,0.117
						C107.91,110.833,107.949,110.835,107.974,110.81z"/>
					<path fill="#FFFFFF" d="M88.65,84.903l-0.561-0.042C88.246,84.889,88.45,84.903,88.65,84.903z"/>
					<path fill="#FFFFFF" d="M71.857,111.979l0.034,0.129C71.897,112.058,71.89,112.013,71.857,111.979z"/>
					<path fill="#FFFFFF" d="M86.424,84.903c-0.1-0.099-0.206-0.157-0.316-0.194c-0.023,0.022-0.05,0.04-0.065,0.072L86.424,84.903z
						"/>
					<path fill="#FFFFFF" d="M93.318,113.948l-0.001-0.003L93.318,113.948z"/>
					<path fill="#FFFFFF" d="M97.015,113.281c-0.535-0.008-0.251,0.361-0.365,0.574c-0.638,0.104-0.295-0.272-0.513-0.461
						c-0.398,0.098-0.704,0.437-1.001,0.422c-0.022-0.061-0.08-0.083-0.012-0.159c-0.421,0.293-1.251,0.014-1.742,0.383
						c-0.037-0.033-0.055-0.064-0.064-0.092c0.08,0.185,0.092,0.373,0.075,0.507c-0.24,0.006-0.445,0.233-0.535-0.008
						c0.146,0.007,0.159-0.09,0.228-0.166l-0.251,0.105c-0.226-0.347,0.343-0.12,0.343-0.377c-0.49,0.113-1.061,0.4-1.436,0.302
						c-0.079-0.34,0.877-0.114,0.376-0.417l0.581,0.13c-0.443-0.536,0.353,0.038-0.055-0.536c-0.764-0.099-0.854,0.173-1.617,0.074
						c-0.171,0.189,0.057,0.279-0.115,0.468c-1.083,0.339-0.853-0.854-1.649-0.402c-0.206,0.227-0.286,0.656-0.854,0.429
						l0.193-0.384c-0.74-0.038-0.422,0.552-1.197,0.293c0.138-0.151,0.582-0.127,0.47-0.173c-0.502-0.303-0.355,0.218-0.741,0.218
						l-0.08-0.34c-0.788,0.053-1.655,0.299-2.528,0.361c0.048-0.101,0.198-0.208-0.006-0.312c-1.1,0.17-2.349-0.042-3.41-0.243
						l-0.405,0.293c-0.094-0.003-0.175-0.132-0.073-0.189c-0.414-0.111-0.021,0.186-0.221,0.302
						c-0.235,0.021-0.311-0.169-0.162-0.257c-0.729,0.249-2.079,0.536-2.848,0.222l0.15-0.087c-0.599-0.119-0.676,0.602-1.231,0.328
						l0.106-0.052c-1.3-0.127-2.736,0.142-3.728-0.301c-0.047,0.105-0.151,0.146-0.282,0.158c-0.157,0.011-0.144-0.007-0.223-0.021
						c-0.112-0.026-0.195-0.032-0.408,0.263c-0.094-0.13-0.056-0.223-0.031-0.304c0.1-0.16,0.181-0.304,0.29-0.458
						c0.027-0.067-0.368,0.071-0.43-0.218l0.309-0.008l-0.324-0.469l0.369-0.249l-0.079-0.324c-0.018,0.129-0.138,0.274-0.227,0.254
						c-0.14-0.505,0.215-1.232,0.373-1.245l-0.261-1.196c0.124,0.027,0.167,0.227,0.246,0.385c-0.314-0.638,0.325-0.116,0.037-0.701
						c-0.07,0.079-0.184-0.042-0.246-0.056c0.187-0.292,0.188-0.956,0.109-1.447l0.213,0.094c0.054-0.887-0.102-1.87-0.098-2.866
						c-0.099,0.357-0.467,0.275-0.503-0.017l0.326-0.117c-0.202-0.188-0.124,0.305-0.37-0.082c0.038-0.372,0.37-0.25,0.476-0.036
						l-0.113-0.453c0.097-0.026,0.148,0.08,0.272,0.107c-0.202-0.186,0.327-0.781-0.024-1.048l0.097-0.025
						c0.002-0.996-0.109-1.447-0.126-2.258c-0.281-0.016-0.219-0.333-0.446-0.575c0.089-0.596,0.311-1.257,0.287-1.976
						c-0.14-0.504-0.238-0.147-0.405-0.374c0.256-0.037,0.232-0.754,0.416-0.382c-0.042-0.862-0.051-1.101-0.259-2.19
						c-0.105,0.118-0.15,0.251-0.238,0.183c-0.042-0.198,0.107-0.45,0.23-0.422l0.026,0.052c-0.384-1.223,0.747-2.823,0.213-3.797
						l0.026,0.054l-0.278-1.01c0.044-0.464,0.192,0.279,0.351-0.065c-0.427-1.09,0.062-1.722-0.223-2.619
						c0.378-0.347,0.364-0.963,0.317-1.61c-0.024-0.324-0.056-0.654-0.052-0.963c0.004-0.267,0.044-0.72,0.165-0.618l-0.178-0.015
						c-0.174-0.083,0.102-0.042,0.143-0.032c-0.138-0.058-0.16-0.008-0.256-0.074c-0.037-0.105-0.054-0.228-0.055-0.336
						c0.126-0.001,0.273,0.02,0.394,0.054c0.036,0.008,0.047,0.018,0.098,0.028l0.33,0.032l0.661,0.073
						c0.882,0.103,1.765,0.223,2.635,0.289c0.77,0.048,0.437-0.92,1.407-0.496l-0.275,0.33c1.553-0.396,3.176,0.014,4.697-0.322
						c-0.091,0.076-0.093,0.175-0.242,0.174c0.321,0.24,1.188,0.012,1.193-0.184c0.237,0.022,0.055,0.177,0.201,0.277
						c0.322,0.142,0.809-0.307,0.98-0.068c0.029,0.039-0.091,0.078-0.15,0.097c0.21-0.116,0.979,0.029,0.777-0.248
						c0.571,0.132,1.092-0.123,1.547,0.041c0.297-0.31,0.977,0.149,1.071-0.289c-0.041,0.453,1,0.365,1.362,0.152
						c-0.121,0.137,0.313,0.142,0.172,0.331c0.412-0.006,0.789-0.09,0.717-0.323c0.758,0.541,1.525-0.436,1.952,0.258
						c1.223-0.243,2.355-0.407,3.456-0.514c-0.04,0.451-1.216,0.045-1.169,0.519c1.044-0.186,1.646-0.573,2.681-0.464
						c0.268,0.062-0.152,0.195-0.243,0.272c1.043-0.186,2.017,0.041,2.945-0.205c-0.003,0.042-0.103,0.088-0.198,0.123
						c0.183-0.015,0.426,0.066,0.405-0.139l-0.178,0.055c-0.292-0.297,0.727-0.622,0.759-0.779
						c-0.311,0.588,0.917,0.148,0.423,0.891c0.121-0.039,0.271-0.136,0.244-0.273c0.179,0.04,0.235,0.12,0.054,0.276
						c0.655-0.112,0.422-0.33,1.016-0.325c-0.002,0.1-0.122,0.138-0.183,0.254c0.3-0.193,0.602-0.387,1.104-0.303
						c-0.03,0.06,0.028,0.138-0.122,0.136c0.861-0.03,1.468-0.515,2.413-0.328c-0.279,0.431,0.322,0.142,0.372,0.515l0.508-0.111
						l-0.204-0.181c0.445,0.006,0.838-0.266,1.221-0.144l-0.331,0.154c-0.021,0,0.884-0.071,0.772-0.071
						c0.06,0-0.399-0.142-0.41-0.142c0.439-0.192-0.022-0.472,0.518-0.368c-0.119,0.038,0.417,0.004,0.471,0.225l-0.002,0.001
						c0.21-0.113,0.504-0.231,0.702-0.165c-0.004,0.016-0.008,0.034-0.013,0.053c-0.119,0.177-0.413,0.354-0.492,0.471
						c0.156-0.096,0.178,0.06,0.202,0.218c0.024,0.163,0.051,0.328,0.217,0.409c-0.078-0.06-0.274-0.013-0.314,0.012
						c0-0.008,0.253,0.077,0.253,0.084c-0.081,0.148-0.12,0.206-0.276,0.166c-0.046,0.62,0.474-0.197,0.27,0.539
						c-0.021-0.058-0.059-0.03-0.097-0.151c-0.106,0.74,0.161,1.429,0.036,2.108c-0.375,0.201-0.092-0.593-0.409-0.364
						c0.068,0.98,0.45,2.029,0.362,2.977l0.042-0.177c0.53,0.131-0.262,0.706-0.012,1.186c-0.039-0.118-0.294-0.154-0.235-0.123
						c-0.085,0.649,0.13,1.327,0.297,2.311l-0.136-0.122c-0.122,0.383-0.07,1.008-0.132,1.421c0.136,0.123,0.114,0.359,0.312,0.215
						c-0.776,1.274,0.416,2.431-0.23,3.562c-0.001-0.135-0.119-0.322-0.12-0.215l0.125,0.963c0.231-0.076,0.14-0.126,0.32-0.329
						c0.137,0.122,0.243,0.394,0.243,0.632c-0.153-0.433-0.371,0.004-0.5,0.191c0.071-0.031,0.149,0.033,0.221,0.017
						c-0.411,0.503,0.465,0.084,0.188,0.771l-0.122-0.037c0.062,0.257,0.223,0.494,0.188,0.771
						c-0.268,0.115-0.125-0.274-0.345-0.292c0.015,0.389,0.506,0.768,0.24,1.121c-0.074-0.166-0.076-0.403-0.149-0.568
						c-0.314,0.383-0.234,0.428-0.284,0.713l0.007-0.028l-0.142,0.659l0.085-0.168c0.697,0.487,0.127,0.992,0.584,1.648
						c-0.432-0.638-0.25-0.105-0.553-0.154c-0.084,0.167-0.178,0.422-0.263,0.35c0.244,0.31-0.192,0.518,0.165,0.956
						c-0.098,0.02-0.009,0.332-0.254,0.262c0.077,0.403,0.17-0.095,0.292-0.062c0.333,0.622-0.404,1.461,0.053,2.355
						c0.188,0.771,0.517,0.914,0.681,1.629c-0.156,0.241-0.355-0.198-0.355-0.198c-0.144,0.39-0.117,0.683-0.006,1.05
						c-0.085-0.074-0.157,0.002-0.267,0.114c0.026,0.294,0.355,0.197,0.211,0.585c-0.108-0.067-0.283-0.152-0.392-0.294
						c0.09,0.348,0.272,0.69,0.36,1.05c-0.17,0.095-0.258-0.217-0.369-0.344c0.076,0.404,0.154,1.047,0.423,1.171l0.096-0.259
						c0.013,0.147-0.231,0.076-0.28-0.033c-0.211-0.346,0.093-0.5,0.191-0.519l0.063,0.256c0.572-0.263-0.092-1.028-0.059-1.543
						l0.416,0.214l-0.345-0.528c0.108-0.112,0.341-0.189,0.403,0.065c0.206-0.37-0.148-0.327,0.082-0.645
						c0.036-0.035,0.056-0.019,0.072,0.013l-0.124-0.361c0.087,0.071,0.293-0.06,0.233,0.162c0.24-0.648-0.312-1.045,0.003-1.289
						l0.025,0.054c-0.141-0.899-0.306-0.087-0.664-0.761l0.753-0.454l-0.306-0.088c0.011-0.093,0.034-0.276,0.156-0.243
						c-0.209-0.345-0.133,0.059-0.33-0.141c0.278-0.446-0.13-1.231,0.356-1.332c-0.232-0.16-0.179,0.427-0.341-0.05
						c0.523-0.136-0.089-0.551,0.15-0.958c0.27,0.125,0.127,0.512,0.368,0.104c-0.457-0.246,0.1-0.794,0.013-1.138
						c-0.363-0.016-0.151-0.748-0.272-1.325c0.122,0.037,0.199-1.086,0.331-1.623l0.061,0.016c-0.367-0.104-0.298-0.658-0.374-1.061
						c0.22,0.016,0.307,0.088,0.405,0.307l-0.002-0.379c-0.118-0.089-0.18-0.208-0.222-0.454l0.274,0.095
						c-0.015-0.504-0.323-1.016-0.14-1.665c-0.256-0.037-0.713,0.516-0.884-0.17c0.139-0.025,0.375-0.051,0.432,0.129
						c-0.019-0.059-0.115-0.21-0.056-0.329l0.233,0.274c0.103-0.295-0.194-0.155-0.173-0.391c0.198,0.005,0.141-0.175,0.298-0.141
						c0.019,0.061-0.082,0.207-0.004,0.297c0.036-0.267,0.153-0.589,0.302-0.695c-0.112,0.023-0.266,0-0.292-0.195
						c-0.015-0.505,0.237-0.173,0.339-0.467c-0.137-0.122,0.005-0.444-0.29-0.453c0.001-0.147,0.139-0.175,0.219-0.232
						c-0.13-0.261-0.038-1.22-0.352-0.925l-0.021,0.067c-0.004-0.013-0.008-0.026-0.013-0.042v0.002V94.03
						c-0.293-0.856,0.167-1.778,0.041-2.627l0.099,0.001c-0.113-0.507-0.066-1.128-0.279-1.49c0-0.15,0.18-0.354,0.298-0.29
						c-0.074-0.387-0.185-0.431-0.022-0.991c0.172,0.39,0.153-0.134,0.126,0.399c0.085-0.503,0.243-0.618-0.026-1.158
						c0.253,0.184,0.318-0.379,0.243-0.618l-0.181,0.353c-0.037-0.269-0.014-0.504,0.007-0.744l0.333,0.129
						c0.203-0.515,0.03-0.979-0.108-1.414c-0.138-0.379-0.242-0.941,0.097-1.701c-0.232-0.301-0.164,0.925-0.436,0.632
						c0.022-0.323,0.153-0.716,0.278-1.115c0.125-0.392,0.245-0.776,0.245-0.902c0.006-0.045,0.013-0.089,0.017-0.12
						c-0.928-0.121-1.3,0.498-2.159,0.376c0.112,0.119,0.06,0.436-0.512,0.547c-0.487-0.044-0.586-0.498-0.29-0.593
						c0.114-0.01,0.169,0.028,0.164,0.068c0.157-0.043,0.519-0.094,0.226-0.223l-0.1,0.119c-0.276-0.121-0.899-0.108-0.755-0.303
						c-0.358,0.113-0.153,0.195,0.112,0.256c-0.608-0.172-0.95-0.005-1.577-0.121c0.1,0.065,0.191,0.205,0.092,0.204
						c-0.918-0.147-0.404,0.225-1.027,0.277c-0.354-0.181,0.127-0.432-0.5-0.28c-0.383-0.123-0.081-0.315,0.071-0.412
						c-0.571,0.229-1.066-0.15-1.392-0.192l0.3-0.096c-0.18,0.057-0.327,0.055-0.477,0.054l0.172,0.238
						c-0.176-0.042-0.326-0.042-0.323-0.141c-0.182,0.155,0.139,0.395-0.222,0.607c-0.235-0.121-0.716,0.129-0.798-0.186
						c0.74,0.107-0.082-0.316,0.544-0.367c-0.121,0.038-0.268,0.036-0.445-0.006c-0.026-0.035,0.025-0.065,0.074-0.083
						c-0.708-0.282-0.326,0.356-1.06,0.349c0.093-0.177-0.17-0.336-0.29-0.299c0.296,0.004,0.142,0.296-0.13,0.432
						c-0.471-0.138-0.512,0.103-0.758,0.087l0.281,0.065c-0.095,0.177-0.331,0.154-0.659,0.21c-0.028-0.138,0.298-0.095,0.181-0.156
						c-0.364,0.312-0.823-0.323-1.331-0.113c-0.235-0.121-0.022-0.333-0.229-0.415c-0.569,0.23-0.616-0.243-1.215-0.053
						c0.172,0.239,0.203,0.18-0.219,0.413l0.984-0.168l-0.631,0.347c0.297,0.003,0.626-0.15,0.804-0.109
						c-0.301,0.195-0.27,0.135-0.127,0.333c-0.406-0.358-0.806,0.208-1.275-0.033l0.015-0.591c-0.706-0.263-1.254,0.303-2.171,0.155
						l0.294,0.103c-0.123,0.235-0.566,0.033-0.863,0.128c0.028-0.198-0.158-0.269-0.285-0.392c0.016,0.146-0.671-0.014-0.754,0.381
						l-0.409-0.26c-0.74-0.106-0.845,0.563-1.556,0.496c0.214-0.215-0.109-0.354,0.368-0.508c-0.238-0.002-0.451-0.038-0.455,0.099
						c-0.139-0.124-0.659,0.266-0.877,0.078c-0.1,0.087-0.133,0.293-0.399,0.277c-0.029-0.04,0.001-0.098,0.001-0.098
						c-0.001,0.098-0.417,0.133-0.185,0.351c-0.732-0.616-2.045,0.045-2.683-0.484c-0.519,0.066-1.143,0.129-1.614,0.144
						c0.03-0.059,0.001-0.099,0.091-0.078c-0.649-0.184-0.399,0.567-1.138,0.362c-0.377-0.319,0.393-0.172,0.157-0.293
						c-0.103-0.649-0.892,0.089-1.389-0.291l0.12-0.038c-0.38-0.221-0.927,0.246-1.548,0.2c0,0,0.03-0.058,0.003-0.098
						c-0.425,0.331-1.229,0.441-1.826,0.533c0.186-0.254,0.271-0.134,0.158-0.393c-0.268,0.037,0.079,0.415-0.456,0.487
						c-0.174-0.139-0.56-0.261-0.611-0.536l0.504-0.015c-0.258-0.356-0.653,0.012-0.918-0.05l0.034-0.156
						c-0.773,0.051-0.784,0.443-1.614,0.416l0.085,0.118c-0.454,0.389-0.38-0.219-0.833,0.071l-0.137-0.395
						c-0.299,0.095-1.049,0.382-1.586,0.456c0.304-0.293,0.933-0.442,1.321-0.616c-0.297-0.003-1.008,0.029-1.163,0.224
						c0.12-0.038,0.27-0.135,0.388-0.074c-0.182,0.155-0.393,0.271-0.632,0.347c-0.12,0.038-0.247,0.066-0.38,0.084
						c-0.155,0.018-0.326,0.026-0.501,0.025c-0.009-0.5-0.993-0.429-1.931-0.486c-0.03,0.444-0.096,0.833-0.302,0.976
						c0.071,0.477,0.099,0.897,0.102,1.323c0.002,0.353-0.02,0.553-0.05,0.843c-0.06,0.541-0.149,1.103-0.127,1.712
						c0.595-0.433,0.017,0.355,0.628,0.281c0.039,0.284,0.029,0.393-0.011,0.418l-0.365,0.86c-0.178,0.204-0.135-0.27-0.272-0.244
						c-0.047,0.622-0.259,0.261-0.421,0.672c0.219-0.084,0.313,0.216,0.229,0.57l0.282-0.499c0.325,0.869-0.513,0.751-0.191,1.626
						l-0.192-0.277c0.113,0.449-0.004,1.658,0.487,2.098c-0.071,0.08-0.238,0.185-0.282-0.013c-0.074,1.074,0.523,2.39,0.22,3.225
						L69.5,96.182c0.043,0.2,0.281,0.349,0.13,0.599c-0.062-0.013-0.149-0.081-0.158,0.012c0.051,0.106,0.262,0.532,0.175,0.798
						l-0.168-0.227c-0.196,1.047,0.41,1.608,0.512,2.486c-0.44-0.002-0.583,0.822-0.654,1.233l-0.063-0.014
						c-0.054,1.22,0.365,2.072,0.538,3.201c-0.478,0.701-0.2,2.375-0.468,3.502c0.08-0.172,0.343,0.028,0.387,0.228
						c-0.089,0.265,0.305,0.731-0.098,0.689l0.007-0.094c-0.396,0.199-0.291,0.743-0.301,1.167l0.528,0.07
						c-0.384,0.555-0.313,1.282-0.233,1.946c0.041,0.332,0.083,0.648,0.073,0.919c-0.005,0.136-0.023,0.26-0.062,0.369
						c-0.039,0.113-0.098,0.18-0.184,0.347c0.132,0.459,0.131,1.021,0.263,1.38l-0.283,0.141c-0.024,0.499-0.043,0.909-0.061,1.276
						c0.699,0.024,1.388,0.023,2.465-0.02l-0.396,0.202c1.126,0.018,1.037-0.816,1.557-0.833l0.144,0.423
						c0.903-0.007,1.816,0.364,2.708-0.019c-0.015,0.062-0.042,0.184-0.188,0.201c0.425,0.011,1.644,0.286,1.489-0.294
						c0.011,0.378,0.931,0.037,1.419-0.129l-0.076,0.278c0.411-0.356,0.424-0.453,0.999-0.552c0.136,0.036,0.119,0.223-0.062,0.152
						c0.454,0.146,0.354-0.264,0.904-0.116l-0.205,0.178c0.467,0.021,0.43-0.074,0.687-0.282c0.293-0.112,0.886,0.07,0.955,0.322
						c0.063-0.153,0.319-0.359,0.594-0.286c0.037,0.095-0.063,0.154-0.113,0.183c0.781,0.189,1.161-0.324,1.698-0.05
						c0.011,0.092,0.046,0.138,0.09,0.166c-0.62-0.006-1.12-0.022-1.073-0.042c0,0.257,0.501,0.302,0.103,0.657
						c0.402-0.194,1.089-0.615,1.578-0.494c0.023,0.025,0.046,0.049,0.064,0.089l-0.05,0.029c0.113,0.025,0.214,0.001,0.309-0.042
						c0.156,0.042,0.255,0.073,0.404,0.077c0.058,0.212,0.575,0.115,0.824,0.125c-0.021-0.281,0.307-0.236,0-0.468
						c0.04,0.02-0.047,0.033-0.213,0.045c-0.038,0.008-0.082,0.013-0.106,0.029l0.017-0.025c-0.164,0.005-0.378,0.012-0.621,0.019
						c0.197-0.143,0.403-0.263,0.68-0.107c0.128-0.181,0.269-0.367,0.349-0.454c0.342,0.392,1,0.604,1.092,0.846
						c0.763-0.158,1.797-0.104,2.276-0.632c0.217-0.068,0.25,0.151,0.33,0.234c-0.125,0.053-0.274,0.045-0.341,0.121
						c0.433-0.136,1.284-0.053,1.388-0.422c0.546,0.167-0.307,0.34,0.444,0.279l-0.101,0.113c1.477,0.59,2.401-0.941,4.039-0.185
						c-0.114-0.046-0.17-0.068-0.193-0.13c1.867,0.334,3.848-0.313,5.69,0.216c0.524,0.106,0.581-0.129,0.9-0.308l0.114,0.302
						l0.546-0.348c0.775-0.255,1.342,0.741,2.323,0.258l-0.127-0.203c0.353,0.039,1.116-0.12,1.057,0.114
						c0.036-0.037,0.116-0.211,0.253-0.105l0.011,0.158l0.866-0.271c0.671,0.114-0.105,0.627,0.874,0.658
						c0.364-0.061,1.036-0.46,0.9-0.566c-0.147-0.008-0.375-0.098-0.387-0.257l0.333-0.082c0.061-0.466,0.316-0.942-0.5-1.268
						l-0.569,0.285l-0.184-0.226l0.479-0.014c-0.271-0.212-0.444-0.024-0.637,0.104c-0.045-0.12-0.125-0.204-0.238-0.249
						l-0.559,0.445c-0.068-0.183,0.25-0.362-0.125-0.462c-0.262,0.207,0.251,0.409-0.183,0.544
						c-0.272-0.212-0.193-0.384-0.512-0.204c-0.045-0.12,0.022-0.196,0.149-0.249c-0.285,0.144-0.753,0.061-0.9,0.309
						c-0.284-0.261-0.961,0.068-0.933-0.373c-0.089,0.105-0.501,0.346-0.763,0.364c0.478-0.527-0.979-0.031-0.852-0.597
						c-0.354,0.475-1.277,0.211-1.903,0.474c0.035-0.038,0.104-0.114,0.159-0.09c-0.353-0.04-0.455-0.183-0.682-0.272
						c-0.045,0.392-0.594,0.481-0.89,0.723c-0.432-0.378,0.262-0.46,0.127-0.823c0.021,0.317-0.75,0.317-0.604,0.582
						c-0.331-0.234-0.285-0.114-0.455-0.438c-0.058,0.49-0.308,0.083-0.582,0.384c-0.478-0.241-0.123-0.459-0.648-0.31
						C96.547,113.454,97.015,113.281,97.015,113.281z M84.526,114.128v-0.006c0.107-0.006,0.199-0.012,0.258-0.016
						C84.73,114.111,84.656,114.117,84.526,114.128z M83.477,114.132c0.127,0.011,0.287,0.013,0.455,0.011
						c0.037,0.097-0.003,0.197-0.109,0.192C83.88,114.271,83.633,114.214,83.477,114.132z M85.696,116.08
						c-0.166,0.04-0.222-0.015-0.245-0.073c0.079-0.005,0.17-0.015,0.291-0.034l0.02-0.035
						C85.746,115.993,85.728,116.043,85.696,116.08z"/>
					<path fill="#FFFFFF" d="M85.995,115.711c0.024-0.006,0.037-0.018,0.068-0.021c-0.034-0.024-0.066-0.046-0.099-0.063
						l-0.059,0.088C85.936,115.714,85.967,115.713,85.995,115.711z"/>
					<path fill="#FFFFFF" d="M109.084,94.006l0.006-0.022c-0.011,0.018-0.022,0.035-0.04,0.046
						C109.064,94.016,109.073,94.016,109.084,94.006z"/>
					<polygon fill="#FFFFFF" points="71.996,113.148 71.925,113.149 71.987,113.241 					"/>
					<path fill="#FFFFFF" d="M108.12,99.786c-0.024,0.011-0.05,0.033-0.072,0.076C108.066,99.859,108.092,99.826,108.12,99.786z"/>
					<path fill="#FFFFFF" d="M108.057,102.283l-0.1,0.353C108.014,102.483,108.041,102.372,108.057,102.283z"/>
					<path fill="#FFFFFF" d="M107.917,104.203c0.049,0.024,0.086,0.031,0.12,0.038l0.002-0.003L107.917,104.203z"/>
					<path fill="#FFFFFF" d="M98.855,84.57c-0.025,0.001-0.051,0.005-0.074,0.013C98.607,84.637,98.726,84.615,98.855,84.57z"/>
					<path fill="#FFFFFF" d="M107.706,83.913c-0.099,0.051-0.187,0.101-0.265,0.133C107.54,84.067,107.612,84.073,107.706,83.913z"
						/>
					<polygon fill="#FFFFFF" points="88.712,84.908 88.713,84.903 88.65,84.903 					"/>
					<path fill="#FFFFFF" d="M107.165,84.041c0.1,0.056,0.179,0.044,0.277,0.005C107.363,84.027,107.259,83.998,107.165,84.041z"/>
					<path fill="#FFFFFF" d="M107.79,112.523l-0.012,0.092c0.019-0.001,0.034,0.004,0.045,0.011L107.79,112.523z"/>
					<path fill="#FFFFFF" d="M107.823,112.627l0.033,0.103C107.856,112.683,107.854,112.642,107.823,112.627z"/>
					<path fill="#FFFFFF" d="M107.927,112.946l-0.071-0.216C107.856,112.804,107.847,112.897,107.927,112.946z"/>
					<path fill="#FFFFFF" d="M107.92,109.982l-0.102-0.029C107.839,109.969,107.872,109.979,107.92,109.982z"/>
					<path fill="#FFFFFF" d="M107.89,109.209c-0.023,0.185-0.217,0.462-0.153,0.719l0.081,0.024
						C107.666,109.832,108.062,109.385,107.89,109.209z"/>
					<path fill="#FFFFFF" d="M109.15,105.986l-0.082,0.647c0.108-0.113,0.254-0.262,0.281,0.032
						C109.673,105.85,109.106,106.834,109.15,105.986z"/>
					<path fill="#FFFFFF" d="M109.308,103.979c0.051,0.348,0.158-0.004,0.219,0.015C109.428,103.773,109.403,103.72,109.308,103.979
						z"/>
					<path fill="#FFFFFF" d="M109.309,89.479l0.256,0.035C109.528,89.245,109.465,89.511,109.309,89.479z"/>
					<polygon fill="#FFFFFF" points="107.987,86.707 107.828,86.967 108.062,87.091 					"/>
					<path fill="#FFFFFF" d="M109.809,85.041c0,0.022,0.037,0.152,0.037,0.145c0,0.093-0.093-0.72-0.093-0.695L109.809,85.041z"/>
					<path fill="#FFFFFF" d="M85.891,82.439l0.081,0.315C86.153,82.697,86.19,82.343,85.891,82.439z"/>
					<path fill="#FFFFFF" d="M75.376,82.76c-0.115-0.158-0.41-0.259-0.593-0.104C75.02,82.677,75.256,82.8,75.376,82.76z"/>
					<polygon fill="#FFFFFF" points="69.47,110.359 69.364,110.148 69.452,110.546 					"/>
				</g>
			</g>
		</g>
	</g>
</g>
<g>
	<g>
		<g>
			<g>
				<g>
					<path fill="#FFFFFF" d="M154.389,114.877c0.086,0.074,0.281,0.032,0.243-0.173l-0.331-0.146L154.389,114.877z"/>
					<path fill="#FFFFFF" d="M155.002,113.496c-0.161-0.241-0.442-0.52-0.747-0.363c0.318,0.239,0.186,0.297,0.564,0.554
						c0.039,0.206-0.106,0.358-0.228,0.324c0.085,0.073-0.073,0.319,0.135,0.43c0.256-0.267,0.267-0.606,0.055-0.959
						C154.855,113.405,154.941,113.479,155.002,113.496z"/>
					<path fill="#FFFFFF" d="M155.519,93.431l-0.04,0.129C155.501,93.524,155.513,93.48,155.519,93.431z"/>
					<path fill="#FFFFFF" d="M152.563,82.845c0.095-0.008,0.134-0.041,0.139-0.071C152.614,82.796,152.542,82.816,152.563,82.845z"
						/>
					<path fill="#FFFFFF" d="M150.44,82.48c0.046,0.008,0.084,0.015,0.125,0.022C150.518,82.472,150.469,82.455,150.44,82.48z"/>
					<path fill="#FFFFFF" d="M155.519,93.431l0.104-0.332C155.515,93.075,155.542,93.269,155.519,93.431z"/>
					<path fill="#FFFFFF" d="M154.204,110.729c0.016,0.07,0.047,0.127,0.087,0.181l-0.035-0.169L154.204,110.729z"/>
					<path fill="#FFFFFF" d="M155.787,98.911l0,0.101c0.038,0.03,0.083,0.058,0.135,0.084L155.787,98.911z"/>
					<path fill="#FFFFFF" d="M155.837,103.117c0.012-0.095-0.269-0.128-0.392-0.165c0.116,0.054,0.171,0.124,0.193,0.208
						C155.692,103.162,155.756,103.149,155.837,103.117z"/>
					<path fill="#FFFFFF" d="M155.343,109.787l0.039,0.118C155.372,109.874,155.355,109.823,155.343,109.787z"/>
					<path fill="#FFFFFF" d="M155.848,95.901c0.042-0.007,0.078-0.022,0.101-0.039C155.913,95.862,155.879,95.877,155.848,95.901z"
						/>
					<path fill="#FFFFFF" d="M150.179,113.558c-0.003,0.02,0.001,0.033,0,0.05C150.204,113.579,150.211,113.559,150.179,113.558z"/>
					<path fill="#FFFFFF" d="M155.055,114.95l-0.067,0.015c-0.007,0.053-0.015,0.105-0.015,0.157L155.055,114.95z"/>
					<path fill="#FFFFFF" d="M146.555,82.12c0.008,0.002,0.01,0.003,0.018,0.005C146.675,82.093,146.617,82.099,146.555,82.12z"/>
					<path fill="#FFFFFF" d="M114.532,88.292c0.251-0.404,0.323,0.657,0.602,0.049C115.023,88.398,114.695,87.788,114.532,88.292z"
						/>
					<path fill="#FFFFFF" d="M154.241,110.62c-0.003-0.057-0.005-0.114-0.003-0.172C154.229,110.526,154.229,110.579,154.241,110.62
						z"/>
					<path fill="#FFFFFF" d="M115.133,88.341h0.002l0.026-0.063C115.15,88.304,115.144,88.319,115.133,88.341z"/>
					<path fill="#FFFFFF" d="M137.604,82.289c0.019,0.049,0.054,0.087,0.091,0.123C137.693,82.383,137.672,82.348,137.604,82.289z"
						/>
					<path fill="#FFFFFF" d="M144.272,82.689l-0.165-0.038C144.173,82.677,144.226,82.686,144.272,82.689z"/>
					<path fill="#FFFFFF" d="M134.143,82.686c-0.09-0.021-0.121-0.06-0.243-0.022c0.011,0.014,0.022,0.024,0.037,0.034
						C133.981,82.659,134.04,82.641,134.143,82.686z"/>
					<path fill="#FFFFFF" d="M130.539,82.688c0.02,0.021,0.044,0.038,0.067,0.057c0.036-0.005,0.077-0.01,0.114-0.015
						L130.539,82.688z"/>
					<path fill="#FFFFFF" d="M139.228,113.693c0.079,0.079,0.128,0.166,0.167,0.252
						C139.338,113.746,139.868,113.674,139.228,113.693z"/>
					<path fill="#FFFFFF" d="M154.362,110.728c-0.071-0.021-0.106-0.052-0.121-0.107l0.015,0.12
						C154.298,110.75,154.337,110.753,154.362,110.728z"/>
					<path fill="#FFFFFF" d="M133.996,84.903l-0.573-0.042C133.583,84.889,133.792,84.903,133.996,84.903z"/>
					<path fill="#FFFFFF" d="M116.839,112.557l0.034,0.131C116.879,112.638,116.871,112.591,116.839,112.557z"/>
					<path fill="#FFFFFF" d="M131.724,84.903c-0.102-0.099-0.21-0.157-0.322-0.194c-0.024,0.022-0.051,0.04-0.066,0.072
						L131.724,84.903z"/>
					<path fill="#FFFFFF" d="M139.395,113.948l-0.001-0.003L139.395,113.948z"/>
					<path fill="#FFFFFF" d="M143.167,113.281c-0.546-0.008-0.256,0.361-0.372,0.574c-0.651,0.104-0.301-0.272-0.523-0.461
						c-0.407,0.098-0.719,0.437-1.022,0.422c-0.022-0.061-0.082-0.083-0.012-0.159c-0.43,0.293-1.276,0.014-1.777,0.383
						c-0.037-0.033-0.056-0.064-0.065-0.092c0.081,0.185,0.094,0.373,0.077,0.507c-0.245,0.006-0.454,0.233-0.546-0.008
						c0.15,0.007,0.162-0.09,0.232-0.166l-0.256,0.105c-0.23-0.347,0.35-0.12,0.35-0.377c-0.5,0.113-1.083,0.4-1.465,0.302
						c-0.08-0.34,0.896-0.114,0.385-0.417l0.592,0.13c-0.453-0.536,0.36,0.038-0.056-0.536c-0.779-0.099-0.872,0.173-1.65,0.074
						c-0.175,0.189,0.058,0.279-0.117,0.468c-1.105,0.339-0.87-0.854-1.683-0.402c-0.21,0.227-0.292,0.656-0.871,0.429l0.197-0.384
						c-0.755-0.038-0.431,0.552-1.222,0.293c0.141-0.151,0.593-0.127,0.479-0.173c-0.512-0.303-0.362,0.218-0.756,0.218l-0.082-0.34
						c-0.804,0.053-1.689,0.299-2.579,0.361c0.049-0.101,0.202-0.208-0.006-0.312c-1.123,0.17-2.396-0.042-3.479-0.243l-0.414,0.293
						c-0.096-0.003-0.178-0.132-0.074-0.189c-0.422-0.111-0.022,0.186-0.225,0.302c-0.24,0.021-0.317-0.169-0.165-0.257
						c-0.745,0.249-2.122,0.536-2.906,0.222l0.153-0.087c-0.611-0.119-0.69,0.602-1.256,0.328l0.108-0.052
						c-1.326-0.127-2.791,0.142-3.803-0.301c-0.096,0.211-0.424,0.164-0.739,0.138c-0.398-0.026-0.383-0.032-0.498,0.263
						c-0.25-0.25-0.13-0.363-0.173-0.514c0.015-0.026,0.044-0.078,0.08-0.14c0.027-0.053-0.368,0.152-0.43-0.004l0.309-0.097
						c0,0.027-0.324-0.09-0.324-0.117c0,0.015,0.369-0.247,0.369-0.247l-0.079-0.33c-0.018,0.131-0.138,0.279-0.227,0.26
						c-0.14-0.516,0.215-1.258,0.373-1.271l-0.261-1.22c0.124,0.027,0.167,0.231,0.246,0.393c-0.314-0.652,0.325-0.119,0.037-0.716
						c-0.07,0.08-0.184-0.043-0.246-0.057c0.187-0.297,0.188-0.975,0.109-1.476l0.213,0.096c0.054-0.905-0.102-1.909-0.098-2.924
						c-0.099,0.364-0.467,0.28-0.503-0.018l0.326-0.119c-0.202-0.192-0.124,0.311-0.37-0.083c0.038-0.38,0.37-0.255,0.476-0.037
						l-0.113-0.461c0.097-0.027,0.148,0.081,0.272,0.109c-0.202-0.189,0.327-0.796-0.024-1.069l0.097-0.026
						c0.002-1.016-0.109-1.477-0.126-2.304c-0.281-0.016-0.219-0.34-0.446-0.586c0.089-0.608,0.311-1.283,0.287-2.015
						c-0.14-0.515-0.238-0.15-0.405-0.382c0.256-0.038,0.232-0.77,0.416-0.39c-0.042-0.879-0.051-1.123-0.259-2.235
						c-0.105,0.121-0.15,0.256-0.238,0.186c-0.042-0.202,0.107-0.459,0.23-0.43l0.026,0.053c-0.384-1.248,0.747-2.881,0.213-3.875
						l0.026,0.056l-0.278-1.031c0.044-0.474,0.192,0.285,0.351-0.066c-0.427-1.112,0.062-1.757-0.223-2.672
						c0.378-0.354,0.364-0.983,0.317-1.643c-0.024-0.33-0.056-0.667-0.052-0.982c0.002-0.158,0.013-0.31,0.039-0.452
						c0.013-0.066,0.029-0.151,0.05-0.194c0.021-0.008,0.046-0.014,0.076-0.015l-0.178-0.012c-0.174-0.081,0.102-0.044,0.143-0.036
						c-0.138-0.056-0.16-0.005-0.256-0.07c-0.037-0.106-0.054-0.231-0.055-0.342c0.128-0.001,0.279,0.02,0.4,0.054
						c0.047,0.008,0.022,0.018,0.124,0.028l0.336,0.032l0.674,0.073c0.9,0.103,1.801,0.223,2.688,0.289
						c0.786,0.048,0.446-0.92,1.436-0.496l-0.281,0.33c1.585-0.396,3.241,0.014,4.792-0.322c-0.092,0.076-0.095,0.175-0.246,0.174
						c0.328,0.24,1.211,0.012,1.217-0.184c0.242,0.022,0.056,0.177,0.205,0.277c0.329,0.142,0.825-0.307,1-0.068
						c0.03,0.039-0.092,0.078-0.153,0.097c0.214-0.116,0.998,0.029,0.793-0.248c0.583,0.132,1.114-0.123,1.579,0.041
						c0.303-0.31,0.997,0.149,1.093-0.289c-0.042,0.453,1.021,0.365,1.389,0.152c-0.123,0.137,0.32,0.142,0.176,0.331
						c0.42-0.006,0.805-0.09,0.732-0.323c0.774,0.541,1.556-0.436,1.992,0.258c1.248-0.243,2.403-0.407,3.526-0.514
						c-0.041,0.451-1.241,0.045-1.193,0.519c1.065-0.186,1.68-0.573,2.736-0.464c0.274,0.062-0.155,0.195-0.248,0.272
						c1.064-0.186,2.058,0.041,3.004-0.205c-0.002,0.042-0.104,0.088-0.201,0.123c0.187-0.015,0.434,0.066,0.413-0.139l-0.182,0.055
						c-0.298-0.297,0.741-0.622,0.774-0.779c-0.317,0.588,0.935,0.148,0.432,0.891c0.123-0.039,0.277-0.136,0.249-0.273
						c0.183,0.04,0.24,0.12,0.055,0.276c0.668-0.112,0.431-0.33,1.037-0.325c-0.002,0.1-0.125,0.138-0.188,0.254
						c0.307-0.193,0.615-0.387,1.126-0.303c-0.031,0.06,0.029,0.138-0.124,0.136c0.879-0.03,1.498-0.515,2.462-0.328
						c-0.285,0.431,0.328,0.142,0.379,0.515l0.519-0.111l-0.208-0.181c0.454,0.006,0.855-0.266,1.246-0.144l-0.337,0.154
						l0.851-0.071l-0.482-0.142c0.459-0.192-0.049-0.472,0.555-0.368c-0.147,0.038,0.511,0.004,0.628,0.225l-0.001,0.001
						c0.175-0.119,0.45-0.244,0.681-0.151c-0.014,0.119-0.311,0.413-0.321,0.492c0.146-0.146,0.326-0.174,0.515-0.197
						c0.026,0.164,0.045,0.341,0.222,0.363c-0.078-0.032-0.274,0.089-0.314,0.129c0-0.008,0.253-0.016,0.253-0.008
						c-0.081,0.193-0.12,0.215-0.276,0.249c-0.046,0.399,0.474-0.261,0.27,0.318c-0.021-0.043-0.059-0.023-0.097-0.105
						c-0.106,0.659,0.161,1.431,0.036,2.103c-0.375,0.205-0.092-0.605-0.409-0.372c0.068,1,0.45,2.07,0.362,3.037l0.042-0.181
						c0.53,0.134-0.262,0.72-0.012,1.209c-0.039-0.12-0.294-0.157-0.235-0.125c-0.085,0.662,0.13,1.354,0.297,2.357l-0.136-0.124
						c-0.122,0.39-0.07,1.028-0.132,1.45c0.136,0.125,0.114,0.366,0.312,0.22c-0.776,1.3,0.416,2.479-0.23,3.633
						c-0.001-0.138-0.119-0.329-0.12-0.219l0.125,0.983c0.231-0.078,0.14-0.129,0.32-0.335c0.137,0.125,0.243,0.402,0.243,0.645
						c-0.153-0.442-0.371,0.004-0.5,0.195c0.071-0.032,0.149,0.033,0.221,0.017c-0.411,0.514,0.465,0.086,0.188,0.787l-0.122-0.037
						c0.062,0.262,0.223,0.503,0.188,0.787c-0.268,0.117-0.125-0.279-0.345-0.297c0.015,0.397,0.506,0.784,0.24,1.144
						c-0.074-0.169-0.076-0.412-0.149-0.58c-0.314,0.392-0.234,0.437-0.284,0.728l0.007-0.028l-0.142,0.672l0.085-0.171
						c0.697,0.497,0.127,1.012,0.584,1.682c-0.432-0.651-0.25-0.107-0.553-0.158c-0.084,0.171-0.178,0.431-0.263,0.357
						c0.244,0.316-0.192,0.528,0.165,0.975c-0.098,0.02-0.009,0.338-0.254,0.267c0.077,0.412,0.17-0.097,0.292-0.063
						c0.333,0.634-0.404,1.491,0.053,2.403c0.188,0.787,0.517,0.932,0.681,1.662c-0.156,0.247-0.355-0.202-0.355-0.202
						c-0.144,0.397-0.117,0.696-0.006,1.071c-0.085-0.076-0.157,0.002-0.267,0.116c0.026,0.301,0.355,0.201,0.211,0.598
						c-0.108-0.068-0.283-0.155-0.392-0.3c0.09,0.354,0.272,0.704,0.36,1.071c-0.17,0.097-0.258-0.221-0.369-0.351
						c0.076,0.412,0.154,1.068,0.423,1.195l0.096-0.265c0.013,0.15-0.231,0.077-0.28-0.034c-0.211-0.353,0.093-0.509,0.191-0.529
						l0.063,0.261c0.572-0.268-0.092-1.049-0.059-1.575l0.416,0.219l-0.345-0.54c0.108-0.114,0.341-0.193,0.403,0.067
						c0.206-0.377-0.148-0.334,0.082-0.658c0.036-0.036,0.056-0.02,0.072,0.014l-0.124-0.368c0.087,0.072,0.293-0.062,0.233,0.165
						c0.24-0.661-0.312-1.066,0.003-1.314l0.025,0.055c-0.141-0.917-0.306-0.089-0.664-0.777l0.753-0.463l-0.306-0.09
						c0.011-0.095,0.034-0.282,0.156-0.248c-0.209-0.352-0.133,0.06-0.33-0.144c0.278-0.456-0.13-1.256,0.356-1.358
						c-0.232-0.164-0.179,0.436-0.341-0.051c0.523-0.139-0.089-0.562,0.15-0.978c0.27,0.128,0.127,0.522,0.368,0.105
						c-0.457-0.251,0.1-0.81,0.013-1.161c-0.363-0.017-0.151-0.763-0.272-1.352c0.122,0.037,0.199-1.108,0.331-1.656l0.061,0.016
						c-0.367-0.106-0.298-0.671-0.374-1.083c0.22,0.016,0.307,0.09,0.405,0.313l-0.002-0.387c-0.118-0.091-0.18-0.212-0.222-0.463
						l0.274,0.097c-0.015-0.515-0.323-1.037-0.14-1.699c-0.256-0.037-0.713,0.527-0.884-0.173c0.139-0.026,0.375-0.052,0.432,0.131
						c-0.019-0.06-0.115-0.214-0.056-0.335l0.233,0.28c0.103-0.302-0.194-0.158-0.173-0.399c0.198,0.005,0.141-0.179,0.298-0.144
						c0.019,0.062-0.082,0.21-0.004,0.303c0.036-0.272,0.153-0.601,0.302-0.709c-0.112,0.023-0.266,0-0.292-0.199
						c-0.015-0.515,0.237-0.176,0.339-0.477c-0.137-0.125,0.005-0.453-0.29-0.462c0.001-0.15,0.139-0.178,0.219-0.237
						c-0.13-0.266-0.038-1.244-0.352-0.944l-0.021,0.068c-0.004-0.014-0.008-0.027-0.013-0.043v0.002v-0.002
						c-0.293-0.874,0.167-1.814,0.041-2.681l0.099,0.001c-0.113-0.518-0.066-1.151-0.279-1.521c0-0.153,0.18-0.361,0.298-0.296
						c-0.074-0.395-0.185-0.439-0.022-1.011c0.172,0.397,0.153-0.137,0.126,0.407c0.085-0.514,0.243-0.63-0.026-1.182
						c0.253,0.188,0.318-0.387,0.243-0.631l-0.181,0.36c-0.037-0.274-0.014-0.515,0.007-0.758l0.333,0.132
						c0.101-0.263,0.109-0.513,0.074-0.752c-0.018-0.12-0.045-0.237-0.078-0.352c-0.032-0.116-0.069-0.208-0.104-0.407
						c-0.138-0.704-0.242-1.128,0.097-2.045c-0.232-0.22-0.164,1.005-0.436,0.808c0.018-0.274,0.106-0.616,0.206-0.972
						c-0.246-0.146-0.493-0.317-0.646-0.317c-1.017-0.185-1.31,0.486-2.02,0.36c0.089,0.119,0.172,0.436-0.346,0.547
						c-0.484-0.044-0.595-0.498-0.289-0.593c0.116-0.01,0.172,0.028,0.167,0.068c0.156-0.043,0.361-0.094,0.17-0.223l-0.063,0.119
						c-0.24-0.121-0.906-0.108-0.75-0.303c-0.366,0.113-0.156,0.195,0.115,0.256c-0.621-0.172-0.97-0.005-1.608-0.121
						c0.101,0.065,0.195,0.205,0.094,0.204c-0.937-0.147-0.413,0.225-1.048,0.277c-0.36-0.181,0.129-0.432-0.51-0.28
						c-0.39-0.123-0.083-0.315,0.073-0.412c-0.583,0.229-1.088-0.15-1.421-0.192l0.307-0.096c-0.183,0.057-0.333,0.055-0.486,0.054
						l0.175,0.238c-0.18-0.042-0.333-0.042-0.329-0.141c-0.186,0.155,0.142,0.395-0.226,0.607c-0.24-0.121-0.731,0.129-0.814-0.186
						c0.755,0.107-0.083-0.316,0.556-0.367c-0.123,0.038-0.273,0.036-0.454-0.006c-0.027-0.035,0.025-0.065,0.075-0.083
						c-0.722-0.282-0.332,0.356-1.081,0.349c0.095-0.177-0.173-0.336-0.295-0.299c0.302,0.004,0.144,0.296-0.133,0.432
						c-0.48-0.138-0.522,0.103-0.773,0.087l0.287,0.065c-0.097,0.177-0.337,0.154-0.672,0.21c-0.029-0.138,0.304-0.095,0.185-0.156
						c-0.372,0.312-0.84-0.323-1.358-0.113c-0.24-0.121-0.023-0.333-0.234-0.415c-0.581,0.23-0.629-0.243-1.239-0.053
						c0.176,0.239,0.207,0.18-0.224,0.413l1.004-0.168l-0.644,0.347c0.303,0.003,0.639-0.15,0.82-0.109
						c-0.307,0.195-0.275,0.135-0.13,0.333c-0.414-0.358-0.821,0.208-1.301-0.033l0.015-0.591c-0.72-0.263-1.28,0.303-2.215,0.155
						l0.301,0.103c-0.125,0.235-0.578,0.033-0.88,0.128c0.028-0.198-0.161-0.269-0.291-0.392c0.016,0.146-0.685-0.014-0.77,0.381
						l-0.417-0.26c-0.755-0.106-0.862,0.563-1.588,0.496c0.219-0.215-0.111-0.354,0.375-0.508c-0.242-0.002-0.46-0.038-0.464,0.099
						c-0.142-0.124-0.672,0.266-0.895,0.078c-0.103,0.087-0.136,0.293-0.408,0.277c-0.03-0.04,0.001-0.098,0.001-0.098
						c-0.001,0.098-0.426,0.133-0.188,0.351c-0.747-0.616-2.087,0.045-2.737-0.484c-0.529,0.066-1.167,0.129-1.646,0.144
						c0.031-0.059,0.001-0.099,0.092-0.078c-0.663-0.184-0.407,0.567-1.161,0.362c-0.385-0.319,0.4-0.172,0.16-0.293
						c-0.104-0.649-0.91,0.089-1.417-0.291l0.123-0.038c-0.388-0.221-0.946,0.246-1.58,0.2c0,0,0.031-0.058,0.003-0.098
						c-0.433,0.331-1.253,0.441-1.863,0.533c0.19-0.254,0.277-0.134,0.161-0.393c-0.273,0.037,0.08,0.415-0.465,0.487
						c-0.178-0.139-0.571-0.261-0.623-0.536l0.514-0.015c-0.263-0.356-0.666,0.012-0.937-0.05l0.035-0.156
						c-0.789,0.051-0.799,0.443-1.646,0.416l0.087,0.118c-0.463,0.389-0.388-0.219-0.85,0.071l-0.14-0.395
						c-0.306,0.095-1.07,0.382-1.618,0.456c0.311-0.293,0.952-0.442,1.348-0.616c-0.303-0.003-1.029,0.029-1.187,0.224
						c0.122-0.038,0.275-0.135,0.396-0.074c-0.186,0.155-0.401,0.271-0.645,0.347c-0.234,0.076-0.514,0.113-0.893,0.109
						c0.001-0.5-1.005-0.429-1.96-0.486c-0.03,0.454-0.096,0.852-0.302,1.002c0.071,0.485,0.099,0.914,0.102,1.348
						c0.002,0.319-0.02,0.553-0.05,0.84c-0.06,0.551-0.149,1.125-0.127,1.747c0.595-0.441,0.017,0.363,0.628,0.287
						c0.039,0.29,0.029,0.4-0.011,0.426l-0.365,0.878c-0.178,0.208-0.135-0.275-0.272-0.249c-0.047,0.634-0.259,0.266-0.421,0.686
						c0.219-0.086,0.313,0.22,0.229,0.582l0.282-0.509c0.325,0.886-0.513,0.766-0.191,1.66l-0.192-0.283
						c0.113,0.458-0.004,1.691,0.487,2.141c-0.071,0.081-0.238,0.188-0.282-0.014c-0.074,1.096,0.523,2.439,0.22,3.291l-0.149-0.083
						c0.043,0.205,0.281,0.356,0.13,0.612c-0.062-0.013-0.149-0.083-0.158,0.012c0.051,0.108,0.262,0.543,0.175,0.814l-0.168-0.231
						c-0.196,1.068,0.41,1.64,0.512,2.536c-0.44-0.002-0.583,0.839-0.654,1.258l-0.063-0.015c-0.054,1.245,0.365,2.114,0.538,3.266
						c-0.478,0.716-0.2,2.423-0.468,3.573c0.08-0.176,0.343,0.028,0.387,0.233c-0.089,0.27,0.305,0.746-0.098,0.703l0.007-0.096
						c-0.396,0.203-0.291,0.758-0.301,1.19l0.528,0.071c-0.384,0.566-0.313,1.308-0.233,1.986c0.041,0.347,0.083,0.642,0.073,0.957
						c-0.01,0.449-0.073,0.83-0.246,1.179c0.132,0.419,0.131,0.993,0.263,1.31l-0.283,0.25c-0.002,0.042-0.005,0.084-0.006,0.108
						c0.613,0.034,1.104,0.059,1.65,0.067c0.274,0,0.56-0.001,0.88-0.001c0.388-0.005,0.534-0.016,0.763-0.032l-0.191,0.202
						c0.528,0.018,0.667-0.816,1.154-0.833l0.146,0.423c0.921-0.007,1.853,0.364,2.763-0.019c-0.015,0.062-0.042,0.184-0.191,0.201
						c0.434,0.011,1.677,0.286,1.52-0.294c0.011,0.378,0.95,0.037,1.448-0.129l-0.078,0.278c0.42-0.356,0.434-0.453,1.02-0.552
						c0.139,0.036,0.122,0.223-0.063,0.152c0.463,0.146,0.36-0.264,0.922-0.116l-0.209,0.178c0.477,0.021,0.438-0.074,0.701-0.282
						c0.3-0.112,0.904,0.07,0.974,0.322c0.064-0.153,0.325-0.359,0.606-0.286c0.038,0.095-0.064,0.154-0.116,0.183
						c0.797,0.189,1.185-0.324,1.732-0.05c0.011,0.092,0.047,0.138,0.092,0.166c-0.633-0.006-1.142-0.022-1.094-0.042
						c0,0.257,0.511,0.302,0.104,0.657c0.41-0.194,1.112-0.615,1.61-0.494c0.024,0.025,0.048,0.049,0.066,0.089l-0.052,0.029
						c0.115,0.025,0.218,0.001,0.315-0.042c0.159,0.042,0.26,0.073,0.413,0.077c0.059,0.212,0.586,0.115,0.841,0.125
						c-0.021-0.281,0.313-0.236,0-0.468c0.041,0.02-0.048,0.033-0.217,0.045c-0.039,0.008-0.083,0.013-0.109,0.029l0.018-0.025
						c-0.167,0.005-0.386,0.012-0.634,0.019c0.202-0.143,0.412-0.263,0.694-0.107c0.13-0.181,0.274-0.367,0.355-0.454
						c0.349,0.392,1.021,0.604,1.115,0.846c0.778-0.158,1.833-0.104,2.322-0.632c0.221-0.068,0.254,0.151,0.337,0.234
						c-0.127,0.053-0.279,0.045-0.349,0.121c0.442-0.136,1.311-0.053,1.417-0.422c0.558,0.167-0.313,0.34,0.453,0.279l-0.104,0.113
						c1.507,0.59,2.45-0.941,4.121-0.185c-0.116-0.046-0.173-0.068-0.197-0.13c1.905,0.334,3.926-0.313,5.806,0.216
						c0.534,0.106,0.592-0.129,0.918-0.308l0.116,0.302l0.558-0.348c0.791-0.255,1.369,0.741,2.37,0.258L151,115.316
						c0.359,0.039,1.139-0.12,1.079,0.114c0.037-0.037,0.118-0.211,0.259-0.105l0.011,0.158l0.883-0.271
						c0.685,0.114-0.107,0.627,0.892,0.658c0.371-0.061,1.058-0.46,0.918-0.566c-0.15-0.008-0.383-0.098-0.394-0.257l0.34-0.082
						c0.062-0.466,0.322-0.942-0.511-1.268l-0.581,0.285l-0.187-0.226l0.489-0.014c-0.277-0.212-0.453-0.024-0.65,0.104
						c-0.046-0.12-0.128-0.204-0.244-0.249l-0.57,0.445c-0.069-0.183,0.256-0.362-0.127-0.462c-0.267,0.207,0.256,0.409-0.186,0.544
						c-0.278-0.212-0.197-0.384-0.523-0.204c-0.046-0.12,0.023-0.196,0.152-0.249c-0.29,0.144-0.768,0.061-0.918,0.309
						c-0.29-0.261-0.98,0.068-0.952-0.373c-0.091,0.105-0.512,0.346-0.778,0.364c0.487-0.527-0.999-0.031-0.87-0.597
						c-0.36,0.475-1.303,0.211-1.941,0.474c0.036-0.038,0.106-0.114,0.163-0.09c-0.36-0.04-0.464-0.183-0.695-0.272
						c-0.046,0.392-0.606,0.481-0.908,0.723c-0.441-0.378,0.268-0.46,0.129-0.823c0.022,0.317-0.766,0.317-0.616,0.582
						c-0.337-0.234-0.29-0.114-0.464-0.438c-0.059,0.49-0.313,0.083-0.593,0.384c-0.488-0.241-0.125-0.459-0.661-0.31
						C142.69,113.454,143.167,113.281,143.167,113.281z M130.424,114.128v-0.006c0.11-0.006,0.203-0.012,0.263-0.016
						C130.632,114.111,130.557,114.117,130.424,114.128z M129.354,114.132c0.13,0.011,0.292,0.013,0.464,0.011
						c0.038,0.097-0.003,0.197-0.111,0.192C129.766,114.271,129.513,114.214,129.354,114.132z M131.618,116.08
						c-0.169,0.04-0.226-0.015-0.249-0.073c0.08-0.005,0.173-0.015,0.296-0.034l0.02-0.035
						C131.669,115.993,131.651,116.043,131.618,116.08z"/>
					<path fill="#FFFFFF" d="M131.923,115.711c0.024-0.006,0.038-0.018,0.07-0.021c-0.035-0.024-0.068-0.046-0.101-0.063
						l-0.06,0.088C131.863,115.714,131.895,115.713,131.923,115.711z"/>
					<path fill="#FFFFFF" d="M155.473,93.583l0.006-0.022c-0.011,0.019-0.022,0.036-0.04,0.047
						C155.453,93.592,155.461,93.592,155.473,93.583z"/>
					<polygon fill="#FFFFFF" points="116.978,113.361 116.907,113.383 116.969,113.384 					"/>
					<path fill="#FFFFFF" d="M154.508,99.48c-0.024,0.011-0.05,0.033-0.072,0.077C154.455,99.554,154.48,99.521,154.508,99.48z"/>
					<path fill="#FFFFFF" d="M154.445,102.027l-0.1,0.36C154.402,102.232,154.429,102.118,154.445,102.027z"/>
					<path fill="#FFFFFF" d="M154.306,103.986c0.049,0.024,0.086,0.032,0.12,0.038l0.002-0.004L154.306,103.986z"/>
					<path fill="#FFFFFF" d="M144.408,84.57c-0.026,0.001-0.052,0.005-0.076,0.013C144.155,84.637,144.275,84.615,144.408,84.57z"/>
					<path fill="#FFFFFF" d="M153.613,83.913c-0.09,0.051-0.129,0.101-0.236,0.133C153.527,84.067,153.574,84.073,153.613,83.913z"
						/>
					<polygon fill="#FFFFFF" points="134.059,84.908 134.06,84.903 133.996,84.903 					"/>
					<path fill="#FFFFFF" d="M152.947,84.041c0.165,0.056,0.303,0.044,0.431,0.005C153.242,84.027,153.083,83.998,152.947,84.041z"
						/>
					<path fill="#FFFFFF" d="M154.178,112.476l-0.012,0.094c0.019-0.001,0.034,0.004,0.045,0.011L154.178,112.476z"/>
					<path fill="#FFFFFF" d="M154.211,112.581l0.033,0.105C154.245,112.638,154.243,112.596,154.211,112.581z"/>
					<path fill="#FFFFFF" d="M154.315,112.907l-0.071-0.221C154.244,112.762,154.235,112.856,154.315,112.907z"/>
					<path fill="#FFFFFF" d="M154.308,109.883l-0.102-0.03C154.227,109.869,154.26,109.88,154.308,109.883z"/>
					<path fill="#FFFFFF" d="M154.278,109.095c-0.023,0.188-0.217,0.472-0.153,0.734l0.081,0.024
						C154.054,109.729,154.45,109.273,154.278,109.095z"/>
					<path fill="#FFFFFF" d="M155.539,105.806l-0.082,0.66c0.108-0.115,0.254-0.267,0.281,0.033
						C156.062,105.667,155.495,106.671,155.539,105.806z"/>
					<path fill="#FFFFFF" d="M155.696,103.758c0.051,0.355,0.158-0.004,0.219,0.015
						C155.816,103.548,155.791,103.494,155.696,103.758z"/>
					<path fill="#FFFFFF" d="M155.697,88.963l0.256,0.036C155.916,88.725,155.854,88.996,155.697,88.963z"/>
					<polygon fill="#FFFFFF" points="154.375,86.135 154.216,86.401 154.45,86.527 					"/>
					<polygon fill="#FFFFFF" points="156.197,84.009 156.233,84.201 156.141,83.469 					"/>
					<path fill="#FFFFFF" d="M131.18,82.439l0.083,0.315C131.447,82.697,131.486,82.343,131.18,82.439z"/>
					<path fill="#FFFFFF" d="M120.453,82.76c-0.117-0.158-0.419-0.259-0.605-0.104C120.089,82.677,120.33,82.8,120.453,82.76z"/>
					<polygon fill="#FFFFFF" points="114.451,110.904 114.346,110.689 114.434,111.095 					"/>
				</g>
			</g>
		</g>
	</g>
</g>
</svg>
