<?xml version="1.0" encoding="utf-8"?>
<!-- Generator: Adobe Illustrator 16.0.0, SVG Export Plug-In . SVG Version: 6.00 Build 0)  -->
<!DOCTYPE svg PUBLIC "-//W3C//DTD SVG 1.1//EN" "http://www.w3.org/Graphics/SVG/1.1/DTD/svg11.dtd">
<svg version="1.1" id="Layer_1" xmlns="http://www.w3.org/2000/svg" xmlns:xlink="http://www.w3.org/1999/xlink" x="0px" y="0px"
	 width="240.662px" height="39.333px" viewBox="0 0 240.662 39.333" enable-background="new 0 0 240.662 39.333"
	 xml:space="preserve">
<g>
	<g>
		<g>
			<path fill="#FCFCFC" d="M195.167,8.502c-6.561-3.678-17.837-4.199-18.363,6.022c-0.211,4.101,1.687,6.796,4.7,9.421
				c4.998,4.353,9.867,8.486,14.446,13.324c1.332,1.408,3.45-0.717,2.121-2.121c-4.562-4.82-9.279-9.177-14.446-13.324
				c-3.253-2.612-4.843-5.915-2.91-9.926c2.532-5.256,9.163-2.922,12.938-0.805C195.343,12.04,196.855,9.449,195.167,8.502
				L195.167,8.502z"/>
		</g>
	</g>
	<g>
		<g>
			<path fill="#FCFCFC" d="M194.604,11.415c2.15-2.711,4.314-6.625,8.125-7.039c6.388-0.693,7.799,7.11,6.653,11.425
				c-1.955,7.364-7.539,13.884-11.933,19.929c-1.14,1.567,1.465,3.062,2.591,1.514c5.001-6.879,16.848-19.981,12.081-29.433
				c-1.915-3.796-5.166-6.028-9.392-6.435c-4.593-0.442-7.854,4.901-10.247,7.917C191.294,10.792,193.402,12.93,194.604,11.415
				L194.604,11.415z"/>
		</g>
	</g>
</g>
<g>
	<g>
		<path fill="#FCFCFC" d="M8.167,12.327c0.044,6.422,0.606,12.878-0.28,19.268c-0.263,1.891,2.628,2.707,2.893,0.798
			c0.927-6.678,0.433-13.353,0.387-20.066C11.153,10.393,8.153,10.392,8.167,12.327L8.167,12.327z"/>
	</g>
</g>
<g>
	<g>
		<path fill="#FCFCFC" d="M10,14.827c6.521,0.127,10.964,2.833,11.759,9.641c0.914,7.827-7.375,8.328-13.092,8.359
			c-1.934,0.011-1.935,3.011,0,3c7.343-0.04,15.731-1.258,16.167-10.167c0.442-9.056-6.68-13.675-14.833-13.833
			C8.064,11.79,8.068,14.79,10,14.827L10,14.827z"/>
	</g>
</g>
<g>
	<g>
		<path fill="#FCFCFC" d="M31.601,21.214c-3.16,0.752-5.247,3.624-5.231,6.836c0.017,3.467,3.165,5.711,6.451,5.391
			c3.169-0.309,5.392-2.949,5.111-6.124c-0.297-3.371-3.037-5.539-6.265-5.824c-1.928-0.17-1.911,2.831,0,3
			c3.446,0.305,4.807,5.592,0.754,5.987c-4.429,0.431-3.439-5.56-0.022-6.374C34.28,23.659,33.482,20.766,31.601,21.214
			L31.601,21.214z"/>
	</g>
</g>
<g>
	<g>
		<path fill="#FCFCFC" d="M39.167,22.327c0.025,3.826,0.338,7.638,1.054,11.399c0.32,1.683,2.983,1.268,2.946-0.399
			c-0.036-1.626-0.352-3.229-0.367-4.856c-0.007-0.866,0.169-1.709,0.922-2.22c0.379-0.257,2.126-0.833,2.424-0.356
			c0.551,0.882,0.128,3.155,0.277,4.21c0.24,1.699,1.371,3.028,2.819,3.852c1.685,0.957,3.196-1.635,1.515-2.591
			c-2.017-1.146-1.361-3.441-1.573-5.389c-0.227-2.088-1.627-3.175-3.685-3.192c-2.484-0.021-4.592,1.322-5.423,3.64
			c-0.774,2.159,0.042,4.692,0.09,6.902c0.982-0.133,1.964-0.266,2.946-0.399c-0.666-3.5-0.923-7.042-0.946-10.601
			C42.154,20.393,39.154,20.392,39.167,22.327L39.167,22.327z"/>
	</g>
</g>
<g>
	<g>
		<path fill="#FCFCFC" d="M49.167,17.661c0,0.556,0,1.111,0,1.667c0,1.935,3,1.935,3,0c0-0.556,0-1.111,0-1.667
			C52.167,15.726,49.167,15.726,49.167,17.661L49.167,17.661z"/>
	</g>
</g>
<g>
	<g>
		<path fill="#FCFCFC" d="M52.268,25.107c3.262,1.002,6.682,1.052,10.065,1.054c1.935,0.001,1.935-2.999,0-3
			c-3.126-0.001-6.253-0.02-9.268-0.946C51.211,21.645,50.424,24.541,52.268,25.107L52.268,25.107z"/>
	</g>
</g>
<g>
	<g>
		<path fill="#FCFCFC" d="M56.5,17.994c-0.055,5.964-1.434,20.29,8.899,16.446c1.796-0.668,1.02-3.568-0.798-2.893
			c-7.149,2.659-5.138-9.571-5.101-13.554C59.518,16.059,56.518,16.061,56.5,17.994L56.5,17.994z"/>
	</g>
</g>
<g>
	<g>
		<path fill="#FCFCFC" d="M85.446,32.262c-0.895-2.941-1.604-8.903,0.75-11.32c1.53-1.571,2.503,3.737,2.607,4.368
			c0.362,2.194,0.362,4.466,0.363,6.685c1,0,2,0,3,0c-0.04-2.244-1.261-7.614,1.632-8.47c2.963-0.876,2.866,6.906,3.034,8.47
			c0.205,1.902,3.207,1.922,3,0c-0.393-3.657-0.089-11.067-5.294-11.459c-6.371-0.479-5.444,7.392-5.373,11.459
			c0.034,1.932,3.001,1.937,3,0c-0.002-4.208,0.341-15.316-6.459-14.096c-5.333,0.957-4.218,11.665-3.153,15.161
			C83.115,34.905,86.011,34.118,85.446,32.262L85.446,32.262z"/>
	</g>
</g>
<g>
	<g>
		<path fill="#FCFCFC" d="M100.5,23.661c0.382,3.639,0.452,7.664,3.743,9.962c1.591,1.11,3.088-1.492,1.515-2.591
			c-2.167-1.513-2.012-5.033-2.257-7.371C103.3,21.757,100.298,21.737,100.5,23.661L100.5,23.661z"/>
	</g>
</g>
<g>
	<g>
		<path fill="#FCFCFC" d="M101.333,19.827c1.935,0,1.935-3,0-3S99.398,19.827,101.333,19.827L101.333,19.827z"/>
	</g>
</g>
<g>
	<g>
		<path fill="#FCFCFC" d="M115.423,22.699c-1.967-0.908-5.03-1.775-6.925-0.277c-1.708,1.35-2.108,3.624-0.148,4.895
			c0.624,0.404,1.414,0.569,2.105,0.819c-0.564-0.205-0.074,0.279,0.089,0.638c0.193,0.423,0.329,0.878,0.461,1.323
			c0.121,0.407,0.405,1.311,0.233,1.704c0.12-0.275,0.371-0.042-0.186-0.167c-0.706-0.158-1.349-0.573-1.963-0.935
			c-1.671-0.984-3.179,1.609-1.515,2.591c1.742,1.026,4.035,2.158,5.813,0.617c1.325-1.148,0.849-3.461,0.425-4.891
			c-0.521-1.759-1.146-3.307-2.965-3.914c-0.259-0.086-0.529-0.156-0.779-0.268c-0.082-0.047-0.166-0.09-0.251-0.13
			c0.482,0.402-0.104,0.747,0.574,0.016c0.547-0.589,2.935,0.3,3.516,0.568C115.653,26.095,117.178,23.509,115.423,22.699
			L115.423,22.699z"/>
	</g>
</g>
<g>
	<g>
		<path fill="#FCFCFC" d="M125.399,22.214c-2.01-0.376-4.859-0.739-6.499,0.825c-1.606,1.532-1.418,3.824,0.454,5.003
			c1.981,1.248,4.174,0.438,5.133,3.122c0.412,1.154-4.854,0.797-5.422,0.717c-1.892-0.269-2.707,2.622-0.798,2.893
			c3.083,0.438,10.885,0.552,8.989-4.751c-0.807-2.259-2.532-3.559-4.767-4.089c-0.467-0.111-0.928-0.227-1.385-0.374
			c-0.462-0.148-0.439-0.129-0.083-0.369c0.906-0.608,2.588-0.269,3.579-0.083C126.492,25.461,127.299,22.57,125.399,22.214
			L125.399,22.214z"/>
	</g>
</g>
<g>
	<g>
		<path fill="#FCFCFC" d="M140.333,25.494c2.556,0,5.111,0,7.667,0c1.935,0,1.935-3,0-3c-2.556,0-5.111,0-7.667,0
			C138.398,22.494,138.398,25.494,140.333,25.494L140.333,25.494z"/>
	</g>
</g>
<g>
	<g>
		<path fill="#FCFCFC" d="M140.5,17.994c0.34,5.168-0.546,16.005,7.5,15.167c1.904-0.198,1.923-3.201,0-3
			c-5.439,0.567-4.273-8.724-4.5-12.167C143.374,16.074,140.373,16.062,140.5,17.994L140.5,17.994z"/>
	</g>
</g>
<g>
	<g>
		<path fill="#FCFCFC" d="M148.887,18.06c1.032,4.937,2.57,9.745,3.667,14.667c0.964-0.266,1.928-0.532,2.893-0.798
			c-0.343-0.891-0.536-1.759-0.58-2.716c-0.083-1.788,2.205-3.738,2.911-1.192c0.599,2.158,0.375,4.054,2.162,5.702
			c1.419,1.31,3.546-0.807,2.121-2.121c-1.494-1.378-1.125-3.962-1.903-5.77c-0.821-1.908-3.151-2.127-4.898-1.859
			c-3.917,0.601-3.75,6.045-2.706,8.754c0.686,1.781,3.32,1.121,2.893-0.798c-1.097-4.921-2.635-9.729-3.667-14.667
			C151.384,15.369,148.492,16.172,148.887,18.06L148.887,18.06z"/>
	</g>
</g>
<g>
	<g>
		<path fill="#FCFCFC" d="M164,29.827c2.793,0.336,7.455-0.181,7.054-4.078c-0.291-2.837-3.065-4.801-5.815-4.295
			c-3.719,0.684-4.677,5.364-3.813,8.406c1.121,3.943,5.065,6.201,8.973,4.914c1.829-0.602,1.045-3.5-0.798-2.893
			c-2.278,0.75-4.264-0.236-5.162-2.467c-0.649-1.612-0.582-4.257,1.353-4.999c1.033-0.396,2.028,0.6,2.276,1.521
			c0.396,1.47-3.521,0.957-4.068,0.891C162.082,26.596,162.104,29.599,164,29.827L164,29.827z"/>
	</g>
</g>
<g>
	<g>
		<path fill="#FCFCFC" d="M226.398,9.107c1.755-0.296,3.489-0.542,5.269-0.613c-0.482-0.633-0.964-1.266-1.446-1.899
			c-2.889,7.186-4.622,14.301-4.721,22.065c-0.024,1.936,2.976,1.933,3,0c0.095-7.509,1.827-14.336,4.613-21.268
			c0.361-0.898-0.547-1.935-1.446-1.899c-2.06,0.082-4.036,0.377-6.065,0.72C223.696,6.536,224.506,9.427,226.398,9.107
			L226.398,9.107z"/>
	</g>
</g>
<g>
	<g>
		<path fill="#FCFCFC" d="M223.5,7.327c0.068,7.151,0.968,14.227,1.667,21.333c0.186,1.888,3,1.97,3,0c0-3.333,0-6.667,0-10
			c0-1.935-3-1.935-3,0c0,3.333,0,6.667,0,10c1,0,2,0,3,0c-0.699-7.107-1.6-14.183-1.667-21.333
			C226.481,5.394,223.481,5.392,223.5,7.327L223.5,7.327z"/>
	</g>
</g>
<g>
	<g>
		<path fill="#FCFCFC" d="M226.786,32.57c-0.365,0.762-0.613,1.542-0.818,2.358c-0.123,0.491-0.019,1.113,0.386,1.459
			c0.512,0.439,0.996,0.64,1.665,0.689c0.738,0.055,1.621-0.395,2.024-0.993c0.317-0.47,0.477-1.105,0.285-1.657
			c-0.117-0.337-0.231-0.487-0.456-0.764c-0.502-0.618,0.194,0.95,0.155,1.062c0.271-0.772-0.301-1.64-1.048-1.845
			c-0.829-0.229-1.574,0.277-1.845,1.047c-0.207,0.589,0.012,1.204,0.403,1.653c0.052,0.059,0.11,0.108,0.168,0.16
			c0.249,0.261,0.15-0.001-0.296-0.787c0.184-0.514,0.198-0.643,0.043-0.385c0.179-0.179,0.358-0.358,0.538-0.538
			c-0.172,0.098-0.201,0.118-0.088,0.059c0.194-0.066,0.437,0.06,0.571,0.176c0.129,0.486,0.257,0.973,0.386,1.459
			c0.14-0.556,0.303-1.197,0.516-1.642c0.354-0.738,0.21-1.614-0.538-2.053C228.176,31.645,227.138,31.833,226.786,32.57
			L226.786,32.57z"/>
	</g>
</g>
</svg>
