<?xml version="1.0" encoding="utf-8"?>
<!-- Generator: Adobe Illustrator 16.0.0, SVG Export Plug-In . SVG Version: 6.00 Build 0)  -->
<!DOCTYPE svg PUBLIC "-//W3C//DTD SVG 1.1//EN" "http://www.w3.org/Graphics/SVG/1.1/DTD/svg11.dtd">
<svg version="1.1" id="Layer_1" xmlns="http://www.w3.org/2000/svg" xmlns:xlink="http://www.w3.org/1999/xlink" x="0px" y="0px"
	 width="23.006px" height="24.5px" viewBox="0 0 23.006 24.5" enable-background="new 0 0 23.006 24.5" xml:space="preserve">
<g>
	<g>
		<path d="M11.763,5.205C7.112,2.528,1.199,2.956,0.251,9.169c-0.361,2.364,0.857,4.297,2.466,5.883
			c2.88,2.841,5.979,5.323,8.728,8.341c1.305,1.433,3.42-0.694,2.121-2.121c-2.284-2.508-4.588-4.968-7.241-7.091
			c-1.665-1.333-3.42-2.651-3.051-5.07C3.862,5.26,8.096,6.556,10.25,7.795C11.929,8.762,13.439,6.169,11.763,5.205L11.763,5.205z"
			/>
	</g>
</g>
<g>
	<g>
		<path d="M11.802,7.59c1.366-1.803,3.109-5.229,6.322-2.673c2.327,1.851,0.918,5.306-0.006,7.427
			c-1.472,3.378-3.807,6.398-5.907,9.399c-1.112,1.589,1.49,3.086,2.591,1.514c3.014-4.308,10.173-12.66,6.882-18.443
			c-1.386-2.436-3.49-3.94-6.34-3.927c-2.805,0.013-4.673,3.263-6.133,5.19C8.042,7.619,10.649,9.111,11.802,7.59L11.802,7.59z"/>
	</g>
</g>
</svg>
